<svg viewBox="192 667 897 232" xmlns="http://www.w3.org/2000/svg" xmlns:xlink="http://www.w3.org/1999/xlink"><defs><circle id="path-1" cx="83" cy="83" r="83"/><mask id="mask-2" x="0" y="0" width="166" height="166" fill="#fff"><use xlink:href="#path-1"/></mask><circle id="path-3" cx="83" cy="83" r="83"/><mask id="mask-4" x="0" y="0" width="166" height="166" fill="#fff"><use xlink:href="#path-3"/></mask><circle id="path-5" cx="83" cy="83" r="83"/><mask id="mask-6" x="0" y="0" width="166" height="166" fill="#fff"><use xlink:href="#path-5"/></mask></defs><g id="Group-5" fill="none" fill-rule="evenodd" transform="translate(192 667)"><use id="Oval-1" stroke="#364159" mask="url(#mask-2)" stroke-width="6" fill="#6DB4BA" xlink:href="#path-1"/><text id="DISCOVER" font-family="Arial" font-size="16" fill="#FFF"><tspan x="44.883" y="89">DISCOVER</tspan></text></g><g id="Group-6" fill="none" fill-rule="evenodd" transform="translate(557 667)"><use id="Oval-1" stroke="#364159" mask="url(#mask-4)" stroke-width="6" fill="#6DB4BA" xlink:href="#path-3"/><text id="DESIGN" font-family="Arial" font-size="16" fill="#FFF"><tspan x="55.23" y="89">DESIGN</tspan></text></g><g id="Group-7" fill="none" fill-rule="evenodd" transform="translate(923 667)"><use id="Oval-1" stroke="#364159" mask="url(#mask-6)" stroke-width="6" fill="#6DB4BA" xlink:href="#path-5"/><text id="IMPLEMENT" font-family="Arial" font-size="16" fill="#FFF"><tspan x="38.234" y="89">IMPLEMENT</tspan></text></g><path d="M274.202 895.5h366m-.202 0h365m.5-.5v-55" id="Line" stroke="#6DB4BA" stroke-width="3" stroke-linecap="round" stroke-linejoin="round" fill="none"/><path d="M367.5 752.5h175.011" id="Line" stroke="#606A80" stroke-width="3" stroke-linecap="square" fill="#606A80" fill-rule="evenodd"/><path id="Line-decoration-1" d="M542.511 752.5l-10.8-3v6l10.8-3z" stroke="#606A80" stroke-width="3" stroke-linecap="square" fill="#606A80" fill-rule="evenodd"/><path d="M735.5 752.5h175.011" id="Line" stroke="#606A80" stroke-width="3" stroke-linecap="square" fill="none"/><path id="Line-decoration-1" d="M910.511 752.5l-10.8-3v6l10.8-3z" stroke="#606A80" stroke-width="3" stroke-linecap="square" fill="none"/><path d="M637.5 895.5v-52.154" id="Line" stroke="#6DB4BA" stroke-width="3" stroke-linecap="square" fill="#6DB4BA" fill-rule="evenodd"/><path id="Line-decoration-1" d="M637.5 843.346l-3 10.8h6l-3-10.8z" stroke="#6DB4BA" stroke-width="3" stroke-linecap="square" fill="#6DB4BA" fill-rule="evenodd"/><path d="M273.702 895.5v-52.154" id="Line" stroke="#6DB4BA" stroke-width="3" stroke-linecap="square" fill="#6DB4BA" fill-rule="evenodd"/><path id="Line-decoration-1" d="M273.702 843.346l-3 10.8h6l-3-10.8z" stroke="#6DB4BA" stroke-width="3" stroke-linecap="square" fill="#6DB4BA" fill-rule="evenodd"/></svg>