<svg width="146" height="450" viewBox="20 659 146 450" xmlns="http://www.w3.org/2000/svg" xmlns:xlink="http://www.w3.org/1999/xlink"><defs><circle id="path-1" cx="55" cy="55" r="55"/><mask id="mask-2" x="0" y="0" width="110" height="110" fill="#fff"><use xlink:href="#path-1"/></mask><circle id="path-3" cx="55" cy="55" r="55"/><mask id="mask-4" x="0" y="0" width="110" height="110" fill="#fff"><use xlink:href="#path-3"/></mask><circle id="path-5" cx="55" cy="55" r="55"/><mask id="mask-6" x="0" y="0" width="110" height="110" fill="#fff"><use xlink:href="#path-5"/></mask></defs><g id="Group" fill="none" fill-rule="evenodd"><g id="Group-5" transform="translate(56 659)"><use id="Oval-1" stroke="#364159" mask="url(#mask-2)" stroke-width="6" fill="#6DB4BA" xlink:href="#path-1"/><text id="DISCOVER" font-family="arial" font-size="10.602" font-weight="bold" fill="#FFF"><tspan x="29.742" y="58.711">DISCOVER</tspan></text></g><path d="M25.036 1057.5h26.765" id="Line" stroke="#6DB4BA" stroke-width="3" stroke-linecap="square"/><g id="Group-6" transform="translate(56 829)"><use id="Oval-1" stroke="#364159" mask="url(#mask-4)" stroke-width="6" fill="#6DB4BA" xlink:href="#path-3"/><text id="DESIGN" font-family="arial" font-size="10.602" font-weight="bold" fill="#FFF"><tspan x="36.599" y="58.711">DESIGN</tspan></text></g><g id="Group-7" transform="translate(56 999)"><use id="Oval-1" stroke="#364159" mask="url(#mask-6)" stroke-width="6" fill="#6DB4BA" xlink:href="#path-5"/><text id="IMPLEMENT" font-family="arial" font-size="10.602" font-weight="bold" fill="#FFF"><tspan x="25.336" y="58.711">IMPLEMENT</tspan></text></g><path d="M110 773.5v48.511" id="Line" stroke="#606A80" stroke-width="3" stroke-linecap="square"/><path id="Line-decoration-1" d="M110 822.011l3-10.8h-6l3 10.8z" stroke="#606A80" stroke-width="3" stroke-linecap="square"/><path d="M110 944.5v48.511" id="Line" stroke="#606A80" stroke-width="3" stroke-linecap="square"/><path id="Line-decoration-1" d="M110 993.011l3-10.8h-6l3 10.8z" stroke="#606A80" stroke-width="3" stroke-linecap="square"/><path d="M23.5 1057.5V715.854" id="Line" stroke="#6DB4BA" stroke-width="3" stroke-linecap="square"/><path d="M23.5 885.5h27.659" id="Line" stroke="#6DB4BA" stroke-width="3" stroke-linecap="square" fill="#6DB4BA"/><path id="Line-decoration-1" d="M51.159 885.5l-10.8-3v6l10.8-3z" stroke="#6DB4BA" stroke-width="3" stroke-linecap="square" fill="#6DB4BA"/><path d="M23.5 714.5h27.659" id="Line" stroke="#6DB4BA" stroke-width="3" stroke-linecap="square" fill="#6DB4BA"/><path id="Line-decoration-1" d="M51.159 714.5l-10.8-3v6l10.8-3z" stroke="#6DB4BA" stroke-width="3" stroke-linecap="square" fill="#6DB4BA"/></g></svg>