<?xml version="1.0" encoding="UTF-8" standalone="no"?>
<svg width="643px" height="402px" viewBox="0 0 643 402" version="1.1" xmlns="http://www.w3.org/2000/svg" xmlns:xlink="http://www.w3.org/1999/xlink">
    <!-- Generator: Sketch 41.2 (35397) - http://www.bohemiancoding.com/sketch -->
    <title>Group 5</title>
    <desc>Created with Sketch.</desc>
    <defs></defs>
    <g id="Page-1" stroke="none" stroke-width="1" fill="none" fill-rule="evenodd">
        <g id="Artboard" transform="translate(-315.000000, -13.000000)">
            <g id="Group-5" transform="translate(315.000000, 13.000000)">
                <g id="Group-3" fill="#28334A">
                    <path d="M554.653947,345.073738 C525.278947,339.088738 494.143947,338.382738 464.448947,336.901738 C462.819947,336.829738 462.766947,338.420738 464.370947,338.632738 C493.805947,342.359738 524.760947,346.961738 554.604947,345.881738 C555.068947,345.863738 555.117947,345.169738 554.653947,345.073738" id="Fill-861"></path>
                    <path d="M444.787947,335.724738 C420.021947,331.992738 393.840947,330.660738 369.018947,328.825738 C367.334947,328.709738 367.342947,329.227738 368.993947,329.415738 C393.735947,332.218738 419.800947,335.641738 444.771947,336.284738 C445.375947,336.298738 445.399947,335.817738 444.787947,335.724738" id="Fill-862"></path>
                    <path d="M396.667947,342.094738 C383.203947,338.775738 369.535947,335.424738 356.029947,332.385738 C354.174947,331.967738 354.036947,332.322738 355.916947,332.825738 C369.319947,336.414738 382.968947,339.673738 396.485947,342.766738 C397.694947,343.048738 397.889947,342.390738 396.667947,342.094738" id="Fill-865"></path>
                    <path d="M379.921947,349.473738 C373.209947,346.540738 366.442947,343.582738 359.750947,340.656738 C357.929947,339.873738 357.634947,340.270738 359.494947,341.189738 C366.180947,344.484738 373.070947,347.511738 379.887947,350.327738 C381.266947,350.900738 381.317947,350.058738 379.921947,349.473738" id="Fill-868"></path>
                    <path d="M415.063947,401.395738 C397.433947,384.434738 377.067947,368.507738 358.060947,352.886738 C356.752947,351.820738 356.372947,352.172738 357.638947,353.310738 C375.973947,369.658738 394.891947,387.143738 414.670947,401.806738 C415.152947,402.163738 415.498947,401.815738 415.063947,401.395738" id="Fill-872"></path>
                    <path d="M372.373947,379.564738 C363.507947,369.257738 354.484947,358.783738 345.439947,348.728738 C344.238947,347.395738 343.854947,347.580738 345.042947,349.019738 C353.670947,359.486738 362.768947,369.881738 371.837947,380.050738 C372.677947,381.002738 373.176947,380.489738 372.373947,379.564738" id="Fill-875"></path>
                    <path d="M354.123947,376.186738 C350.484947,370.040738 346.816947,363.843738 343.188947,357.715738 C342.202947,356.078738 341.651947,356.108738 342.600947,357.905738 C345.998947,364.333738 349.757947,370.717738 353.585947,376.884738 C354.386947,378.191738 354.906947,377.462738 354.123947,376.186738" id="Fill-878"></path>
                    <path d="M329.877947,395.912738 C329.019947,382.564738 328.140947,369.024738 326.973947,355.712738 C326.813947,353.883738 326.378947,353.843738 326.458947,355.718738 C327.026947,369.088738 328.026947,382.601738 329.135947,395.935738 C329.229947,397.129738 329.960947,397.122738 329.877947,395.912738" id="Fill-885"></path>
                    <path d="M317.015947,382.901738 C317.828947,375.843738 318.647947,368.727738 319.457947,361.688738 C319.665947,359.775738 319.181947,359.583738 318.853947,361.568738 C317.676947,368.700738 316.826947,375.963738 316.163947,383.091738 C316.025947,384.534738 316.872947,384.362738 317.015947,382.901738" id="Fill-888"></path>
                    <path d="M285.362947,385.279738 C292.823947,373.993738 300.389947,362.521738 307.568947,351.126738 C308.555947,349.561738 308.204947,349.361738 307.123947,350.925738 C299.406947,362.080738 291.970947,373.538738 284.728947,384.933738 C284.075947,385.950738 284.690947,386.306738 285.362947,385.279738" id="Fill-895"></path>
                    <path d="M283.075947,367.520738 C288.037947,362.288738 293.039947,357.011738 297.986947,351.794738 C299.318947,350.371738 298.954947,350.009738 297.470947,351.429738 C292.142947,356.538738 287.051947,361.898738 282.187947,367.258738 C281.199947,368.340738 282.069947,368.617738 283.075947,367.520738" id="Fill-898"></path>
                    <path d="M220.864947,383.629738 C243.112947,372.674738 265.117947,358.934738 286.378947,346.368738 C287.833947,345.500738 287.556947,345.082738 286.040947,345.892738 C264.202947,357.667738 241.088947,369.601738 220.561947,383.155738 C220.061947,383.486738 220.314947,383.899738 220.864947,383.629738" id="Fill-902"></path>
                    <path d="M162.469947,386.740738 C185.246947,377.529738 208.615947,369.870738 231.368947,360.578738 C232.848947,359.979738 232.469947,358.907738 230.960947,359.437738 C207.915947,367.692738 184.209947,375.175738 161.977947,385.443738 C161.049947,385.875738 161.488947,387.144738 162.469947,386.740738" id="Fill-904"></path>
                    <path d="M255.715947,351.383738 C268.634947,346.458738 281.724947,341.449738 294.536947,336.263738 C296.295947,335.551738 296.250947,335.164738 294.424947,335.819738 C281.401947,340.486738 268.336947,345.576738 255.495947,350.721738 C254.343947,351.176738 254.546947,351.834738 255.715947,351.383738" id="Fill-905"></path>
                    <path d="M24.2569473,387.645738 C44.5589473,384.587738 65.2479473,380.804738 84.9889473,375.548738 C86.5779473,375.124738 85.8569473,372.470738 84.2379473,372.613738 C63.7659473,374.512738 42.5769473,377.193738 23.7299473,386.123738 C23.1539473,386.397738 23.6759473,387.734738 24.2569473,387.645738" id="Fill-906"></path>
                    <path d="M111.573947,370.880738 C150.001947,360.921738 189.045947,352.854738 227.864947,344.426738 C229.801947,344.005738 229.617947,342.553738 227.594947,342.912738 C188.603947,349.943738 148.997947,357.779738 110.978947,368.598738 C109.624947,368.980738 110.185947,371.246738 111.573947,370.880738" id="Fill-907"></path>
                    <path d="M264.748947,335.932738 C271.981947,334.510738 279.275947,333.075738 286.488947,331.656738 C288.446947,331.259738 288.511947,330.752738 286.448947,331.061738 C279.036947,332.171738 271.583947,333.624738 264.320947,335.206738 C262.849947,335.523738 263.258947,336.250738 264.748947,335.932738" id="Fill-908"></path>
                    <path d="M71.0479473,332.742738 C82.2859473,334.087738 93.5659473,331.407738 104.761947,330.771738 C116.022947,330.098738 127.357947,330.166738 138.565947,329.015738 C140.819947,328.783738 140.688947,325.980738 138.400947,325.830738 C117.079947,324.632738 91.0379473,322.659738 70.6299473,330.077738 C69.3549473,330.547738 69.8669473,332.598738 71.0479473,332.742738" id="Fill-909"></path>
                    <path d="M174.823947,329.135738 C212.870947,328.461738 251.162947,327.616738 289.143947,326.035738 C290.612947,325.974738 291.015947,325.551738 289.440947,325.546738 C251.848947,325.338738 212.078947,323.872738 174.728947,327.519738 C173.344947,327.647738 173.364947,329.169738 174.823947,329.135738" id="Fill-910"></path>
                    <path d="M94.6979473,304.277738 C124.072947,310.262738 155.208947,310.968738 184.902947,312.449738 C186.531947,312.522738 186.585947,310.930738 184.981947,310.718738 C155.545947,306.991738 124.590947,302.389738 94.7479473,303.469738 C94.2829473,303.487738 94.2349473,304.181738 94.6979473,304.277738" id="Fill-911"></path>
                    <path d="M204.564947,313.627738 C229.330947,317.358738 255.511947,318.690738 280.332947,320.525738 C282.016947,320.641738 282.009947,320.123738 280.357947,319.935738 C255.616947,317.132738 229.551947,313.709738 204.579947,313.066738 C203.976947,313.052738 203.952947,313.533738 204.564947,313.627738" id="Fill-912"></path>
                    <path d="M0.378947314,236.480738 C40.1869473,257.567738 84.7559473,267.882738 128.364947,276.258738 C130.386947,276.638738 131.180947,273.773738 129.184947,273.194738 C86.3229473,260.977738 43.9089473,247.120738 1.42794731,233.661738 C0.460947314,233.353738 -0.576052686,235.974738 0.378947314,236.480738" id="Fill-913"></path>
                    <path d="M155.618947,283.147738 C179.658947,288.567738 203.287947,295.592738 227.355947,300.930738 C228.918947,301.283738 229.211947,300.186738 227.666947,299.762738 C203.960947,293.409738 180.183947,286.057738 155.975947,281.811738 C154.963947,281.636738 154.579947,282.921738 155.618947,283.147738" id="Fill-914"></path>
                    <path d="M252.683947,307.256738 C266.147947,310.575738 279.815947,313.926738 293.321947,316.965738 C295.176947,317.383738 295.314947,317.028738 293.434947,316.525738 C280.032947,312.936738 266.382947,309.677738 252.865947,306.585738 C251.656947,306.303738 251.461947,306.960738 252.683947,307.256738" id="Fill-915"></path>
                    <path d="M43.1479473,205.745738 C61.3979473,214.725738 80.4129473,223.342738 99.6499473,230.271738 C101.199947,230.829738 102.379947,228.335738 100.990947,227.540738 C83.2299473,217.484738 64.5509473,207.724738 43.7149473,204.243738 C43.0749473,204.138738 42.6239473,205.489738 43.1479473,205.745738" id="Fill-916"></path>
                    <path d="M123.960947,241.498738 C161.238947,255.205738 197.768947,270.749738 234.390947,285.896738 C236.292947,286.683738 236.983947,285.386738 235.107947,284.524738 C199.193947,268.143738 162.577947,252.191738 125.009947,239.374738 C123.673947,238.915738 122.610947,241.009738 123.960947,241.498738" id="Fill-917"></path>
                    <path d="M269.429947,299.877738 C276.141947,302.811738 282.908947,305.769738 289.600947,308.694738 C291.422947,309.477738 291.716947,309.080738 289.856947,308.161738 C283.170947,304.866738 276.280947,301.839738 269.463947,299.023738 C268.084947,298.450738 268.033947,299.292738 269.429947,299.877738" id="Fill-918"></path>
                    <path d="M114.401947,187.604738 C122.620947,195.023738 133.439947,199.275738 142.914947,205.119738 C152.451947,210.961738 161.556947,217.419738 171.369947,222.864738 C173.343947,223.958738 175.104947,221.721738 173.354947,220.309738 C156.925947,207.323738 137.129947,191.009738 115.802947,185.279738 C114.465947,184.927738 113.542947,186.823738 114.401947,187.604738" id="Fill-919"></path>
                    <path d="M200.555947,243.441738 C231.682947,264.397738 263.204947,285.400738 294.881947,305.617738 C296.051947,306.365738 296.762947,306.349738 295.500947,305.461738 C265.471947,284.218738 234.190947,260.480738 201.572947,242.155738 C200.368947,241.470738 199.356947,242.643738 200.555947,243.441738" id="Fill-920"></path>
                    <path d="M151.197947,178.114738 C171.145947,199.498738 195.923947,217.744738 219.084947,235.830738 C220.356947,236.812738 221.478947,235.650738 220.297947,234.555738 C198.710947,214.787738 176.625947,193.619738 151.762947,177.513738 C151.373947,177.263738 150.884947,177.776738 151.197947,178.114738" id="Fill-921"></path>
                    <path d="M234.287947,247.955738 C251.917947,264.916738 272.283947,280.843738 291.290947,296.464738 C292.599947,297.530738 292.978947,297.178738 291.712947,296.041738 C273.377947,279.692738 254.460947,262.207738 234.680947,247.545738 C234.198947,247.188738 233.852947,247.536738 234.287947,247.955738" id="Fill-922"></path>
                    <path d="M116.168947,69.9197381 C135.312947,109.181738 165.286947,143.019738 195.323947,174.336738 C196.681947,175.736738 199.191947,174.013738 197.921947,172.407738 C170.732947,138.315738 144.916947,103.180738 118.777947,68.3027381 C118.183947,67.5077381 115.707947,68.9757381 116.168947,69.9197381" id="Fill-923"></path>
                    <path d="M213.168947,195.335738 C229.285947,213.296738 244.155947,232.410738 260.344947,250.321738 C261.357947,251.448738 262.295947,250.746738 261.329947,249.558738 C246.057947,231.032738 231.339947,211.673738 214.283947,194.470738 C213.553947,193.735738 212.443947,194.538738 213.168947,195.335738" id="Fill-924"></path>
                    <path d="M276.977947,269.786738 C285.843947,280.094738 294.866947,290.567738 303.911947,300.622738 C305.112947,301.955738 305.497947,301.770738 304.308947,300.331738 C295.680947,289.864738 286.582947,279.469738 277.513947,269.300738 C276.673947,268.348738 276.174947,268.861738 276.977947,269.786738" id="Fill-925"></path>
                    <path d="M169.472947,69.3767381 C178.795947,86.9827381 188.954947,104.719738 200.287947,121.158738 C201.201947,122.481738 203.619947,121.038738 202.976947,119.603738 C194.676947,101.362738 185.484947,82.8937381 170.819947,68.4407381 C170.368947,67.9977381 169.203947,68.8727381 169.472947,69.3767381" id="Fill-926"></path>
                    <path d="M213.151947,144.010738 C234.943947,176.092738 255.045947,209.300738 275.447947,242.202738 C276.507947,243.912738 277.789947,243.123738 276.795947,241.366738 C257.686947,207.808738 237.783947,174.274738 215.241947,142.794738 C214.442947,141.672738 212.357947,142.853738 213.151947,144.010738" id="Fill-927"></path>
                    <path d="M295.227947,273.165738 C298.866947,279.310738 302.534947,285.507738 306.162947,291.635738 C307.148947,293.272738 307.699947,293.242738 306.750947,291.445738 C303.352947,285.017738 299.593947,278.633738 295.765947,272.466738 C294.965947,271.160738 294.444947,271.888738 295.227947,273.165738" id="Fill-928"></path>
                    <path d="M238.285947,95.0207381 C240.419947,105.706738 246.578947,115.217738 250.672947,125.270738 C254.824947,135.371738 258.260947,145.760738 262.868947,155.673738 C263.796947,157.666738 266.539947,156.716738 265.982947,154.577738 C260.584947,134.713738 254.517947,110.273738 240.814947,93.8347381 C239.951947,92.8097381 238.064947,93.8957381 238.285947,95.0207381" id="Fill-929"></path>
                    <path d="M273.962947,188.874738 C286.396947,223.477738 299.092947,258.233738 312.407947,292.506738 C312.923947,293.832738 313.443947,294.110738 312.959947,292.670738 C301.487947,258.293738 290.691947,221.418738 275.533947,188.316738 C274.977947,187.087738 273.477947,187.550738 273.962947,188.874738" id="Fill-930"></path>
                    <path d="M273.858947,107.898738 C276.942947,136.613738 285.832947,165.349738 293.484947,193.015738 C293.911947,194.525738 295.499947,194.124738 295.212947,192.568738 C289.823947,164.304738 284.911947,134.654738 274.677947,107.701738 C274.516947,107.281738 273.811947,107.445738 273.858947,107.898738" id="Fill-931"></path>
                    <path d="M298.356947,211.392738 C302.282947,235.193738 309.018947,259.580738 314.805947,282.897738 C315.209947,284.496738 315.687947,284.329738 315.357947,282.688738 C310.501947,259.032738 305.901947,234.180738 298.911947,211.243738 C298.741947,210.685738 298.259947,210.803738 298.356947,211.392738" id="Fill-932"></path>
                    <path d="M311.766947,0.701738085 C303.269947,43.5787381 306.750947,87.5487381 311.884947,130.079738 C312.130947,132.048738 315.205947,131.922738 315.162947,129.918738 C314.039947,86.9237381 314.656947,43.8417381 314.852947,0.811738085 C314.857947,-0.168261915 311.971947,-0.327261915 311.766947,0.701738085" id="Fill-933"></path>
                    <path d="M313.458947,157.153738 C315.499947,180.837738 315.814947,204.618738 317.942947,228.305738 C318.075947,229.844738 319.270947,229.797738 319.214947,228.252738 C318.206947,204.598738 318.150947,180.576738 314.891947,157.083738 C314.752947,156.102738 313.362947,156.130738 313.458947,157.153738" id="Fill-934"></path>
                    <path d="M319.474947,253.438738 C320.332947,266.786738 321.211947,280.326738 322.378947,293.638738 C322.537947,295.467738 322.973947,295.508738 322.892947,293.632738 C322.324947,280.262738 321.324947,266.750738 320.215947,253.415738 C320.121947,252.221738 319.390947,252.228738 319.474947,253.438738" id="Fill-935"></path>
                    <path d="M355.027947,30.2017381 C351.828947,49.7407381 349.217947,69.8557381 348.348947,89.5397381 C348.283947,91.0727381 351.108947,91.3347381 351.459947,89.8587381 C355.867947,70.5187381 359.700947,50.4107381 356.682947,30.2157381 C356.588947,29.5727381 355.118947,29.6297381 355.027947,30.2017381" id="Fill-936"></path>
                    <path d="M344.804947,115.329738 C342.844947,153.579738 338.849947,191.758738 335.259947,229.998738 C335.074947,231.983738 336.568947,232.264738 336.835947,230.281738 C341.857947,192.347738 346.237947,153.876738 347.235947,115.486738 C347.277947,114.086738 344.867947,113.956738 344.804947,115.329738" id="Fill-937"></path>
                    <path d="M332.335947,266.449738 C331.522947,273.507738 330.703947,280.623738 329.893947,287.662738 C329.686947,289.575738 330.169947,289.767738 330.498947,287.783738 C331.675947,280.650738 332.524947,273.387738 333.187947,266.259738 C333.326947,264.816738 332.478947,264.988738 332.335947,266.449738" id="Fill-938"></path>
                    <path d="M395.054947,89.9467381 C390.249947,99.8317381 389.438947,110.968738 386.616947,121.411738 C383.812947,131.923738 380.248947,142.283738 377.932947,152.888738 C377.474947,155.001738 380.285947,155.742738 381.111947,153.783738 C385.038947,144.289738 389.373947,133.721738 392.730947,122.884738 C396.051947,112.108738 398.459947,100.772738 397.837947,90.3687381 C397.762947,89.0597381 395.563947,88.9087381 395.054947,89.9467381" id="Fill-939"></path>
                    <path d="M366.633947,186.057738 C355.569947,221.098738 344.616947,256.434738 334.472947,291.686738 C334.080947,293.049738 334.348947,293.517738 334.837947,292.072738 C340.676947,274.803738 347.056947,257.418738 352.953947,239.711738 C358.848947,222.060738 364.265947,204.019738 368.259947,186.445738 C368.560947,185.139738 367.050947,184.711738 366.633947,186.057738" id="Fill-940"></path>
                    <path d="M415.986947,120.463738 C408.480947,132.814738 402.165947,146.229738 396.363947,159.743738 C390.569947,173.274738 385.253947,186.967738 379.920947,200.418738 C379.343947,201.887738 380.810947,202.603738 381.526947,201.185738 C394.380947,175.348738 408.483947,148.613738 416.749947,120.809738 C416.877947,120.375738 416.224947,120.072738 415.986947,120.463738" id="Fill-941"></path>
                    <path d="M372.623947,218.096738 C361.339947,239.421738 351.889947,262.992738 342.293947,285.248738 C341.641947,286.778738 342.068947,287.060738 342.799947,285.552738 C353.272947,263.748738 364.717947,241.037738 373.138947,218.347738 C373.343947,217.795738 372.903947,217.570738 372.623947,218.096738" id="Fill-942"></path>
                    <path d="M512.286947,55.1387381 C479.070947,85.1297381 455.017947,122.706738 433.227947,159.958738 C432.225947,161.688738 434.839947,163.252738 436.029947,161.606738 C461.412947,126.172738 488.292947,91.6207381 514.695947,57.0167381 C515.306947,56.2177381 513.108947,54.3867381 512.286947,55.1387381" id="Fill-943"></path>
                    <path d="M417.956947,182.754738 C405.147947,203.050738 390.848947,222.512738 378.109947,242.859738 C377.276947,244.179738 378.300947,244.752738 379.200947,243.469738 C392.845947,223.745738 407.499947,204.258738 419.182947,183.468738 C419.668947,182.598738 418.502947,181.873738 417.956947,182.754738" id="Fill-944"></path>
                    <path d="M363.988947,264.071738 C356.527947,275.357738 348.961947,286.829738 341.782947,298.224738 C340.795947,299.789738 341.146947,299.989738 342.228947,298.425738 C349.944947,287.270738 357.380947,275.812738 364.623947,264.418738 C365.275947,263.400738 364.660947,263.044738 363.988947,264.071738" id="Fill-945"></path>
                    <path d="M529.103947,103.855738 C514.581947,117.800738 500.182947,132.553738 487.404947,148.004738 C486.375947,149.249738 488.507947,151.056738 489.725947,150.028738 C505.173947,136.842738 520.588947,122.744738 530.424947,104.817738 C530.724947,104.266738 529.518947,103.454738 529.103947,103.855738" id="Fill-946"></path>
                    <path d="M468.785947,166.802738 C443.747947,196.659738 417.105947,225.291738 390.843947,254.119738 C389.479947,255.617738 390.608947,256.607738 392.039947,255.156738 C419.323947,227.332738 446.365947,198.757738 470.594947,168.379738 C471.459947,167.300738 469.685947,165.718738 468.785947,166.802738" id="Fill-947"></path>
                    <path d="M366.275947,281.830738 C361.314947,287.062738 356.311947,292.339738 351.364947,297.557738 C350.032947,298.979738 350.396947,299.341738 351.880947,297.921738 C357.208947,292.812738 362.299947,287.452738 367.163947,282.092738 C368.151947,281.010738 367.281947,280.734738 366.275947,281.830738" id="Fill-948"></path>
                    <path d="M524.923947,174.606738 C515.053947,179.852738 507.524947,188.452738 498.852947,195.316738 C490.150947,202.247738 480.956947,208.604738 472.572947,215.903738 C470.887947,217.370738 472.620947,219.627738 474.558947,218.457738 C492.483947,207.384738 514.723947,194.263738 526.835947,176.574738 C527.587947,175.463738 525.962947,174.057738 524.923947,174.606738" id="Fill-949"></path>
                    <path d="M443.225947,236.316738 C412.892947,258.403738 382.499947,280.753738 352.748947,303.556738 C351.598947,304.438738 351.454947,305.048738 352.724947,304.163738 C383.069947,283.123738 416.151947,261.791738 444.226947,237.613738 C445.271947,236.722738 444.383947,235.463738 443.225947,236.316738" id="Fill-950"></path>
                    <path d="M523.105947,211.151738 C495.756947,222.866738 470.114947,239.929738 445.137947,255.545738 C443.777947,256.406738 444.627947,257.761738 446.074947,257.016738 C472.293947,243.319738 500.038947,229.614738 523.541947,211.846738 C523.907947,211.567738 523.537947,210.968738 523.105947,211.151738" id="Fill-951"></path>
                    <path d="M428.486947,265.721738 C406.238947,276.676738 384.234947,290.416738 362.973947,302.982738 C361.518947,303.850738 361.794947,304.269738 363.311947,303.458738 C385.148947,291.683738 408.262947,279.749738 428.789947,266.195738 C429.289947,265.864738 429.036947,265.451738 428.486947,265.721738" id="Fill-952"></path>
                    <path d="M640.886947,212.655738 C595.931947,218.044738 553.595947,234.886738 513.139947,252.780738 C511.268947,253.616738 512.308947,256.408738 514.274947,255.748738 C556.396947,241.412738 599.142947,228.661738 641.718947,215.545738 C642.688947,215.247738 641.964947,212.525738 640.886947,212.655738" id="Fill-953"></path>
                    <path d="M486.882947,262.611738 C464.104947,271.821738 440.735947,279.480738 417.982947,288.772738 C416.502947,289.371738 416.881947,290.443738 418.390947,289.913738 C441.435947,281.658738 465.142947,274.175738 487.373947,263.907738 C488.301947,263.475738 487.862947,262.206738 486.882947,262.611738" id="Fill-954"></path>
                    <path d="M393.635947,297.967738 C380.716947,302.892738 367.626947,307.900738 354.814947,313.087738 C353.055947,313.799738 353.100947,314.187738 354.926947,313.532738 C367.949947,308.865738 381.014947,303.775738 393.855947,298.629738 C395.007947,298.174738 394.804947,297.516738 393.635947,297.967738" id="Fill-955"></path>
                    <path d="M625.094947,261.705738 C604.792947,264.763738 584.103947,268.546738 564.363947,273.802738 C562.773947,274.226738 563.494947,276.880738 565.113947,276.737738 C585.586947,274.838738 606.774947,272.157738 625.621947,263.227738 C626.197947,262.953738 625.675947,261.616738 625.094947,261.705738" id="Fill-956"></path>
                    <path d="M537.777947,278.470738 C499.349947,288.429738 460.305947,296.496738 421.486947,304.924738 C419.549947,305.345738 419.733947,306.797738 421.756947,306.438738 C460.748947,299.407738 500.353947,291.571738 538.372947,280.752738 C539.727947,280.370738 539.165947,278.104738 537.777947,278.470738" id="Fill-957"></path>
                    <path d="M384.602947,313.418738 C377.369947,314.840738 370.076947,316.275738 362.862947,317.694738 C360.905947,318.092738 360.839947,318.598738 362.902947,318.290738 C370.314947,317.179738 377.768947,315.726738 385.030947,314.144738 C386.502947,313.827738 386.093947,313.100738 384.602947,313.418738" id="Fill-958"></path>
                    <path d="M578.303947,316.608738 C567.065947,315.263738 555.785947,317.943738 544.589947,318.580738 C533.328947,319.253738 521.993947,319.184738 510.785947,320.334738 C508.531947,320.567738 508.662947,323.370738 510.951947,323.520738 C532.272947,324.718738 558.313947,326.691738 578.721947,319.273738 C579.996947,318.803738 579.485947,316.753738 578.303947,316.608738" id="Fill-959"></path>
                    <path d="M474.528947,320.215738 C436.481947,320.889738 398.188947,321.734738 360.208947,323.315738 C358.739947,323.376738 358.335947,323.799738 359.911947,323.805738 C397.502947,324.012738 437.273947,325.478738 474.622947,321.831738 C476.007947,321.703738 475.986947,320.181738 474.528947,320.215738" id="Fill-960"></path>
                </g>
                <g id="Group-2" transform="translate(244.000000, 35.000000)" fill="#38B6AB">
                    <path d="M73.7149473,38.6487381 C73.9259473,38.6097381 74.1059473,38.5427381 74.2589473,38.4557381 C78.4829473,38.7747381 87.8679473,14.0877381 89.4939473,10.3897381 C93.2029473,19.0017381 98.3669473,27.6767381 103.686947,35.2857381 C107.414947,43.4917381 126.140947,45.6627381 133.940947,46.1207381 C127.280947,52.0697381 117.600947,58.6487381 113.217947,66.5977381 C111.276947,68.7007381 111.427947,71.8557381 111.978947,74.4407381 C112.384947,80.6777381 114.496947,87.0997381 116.204947,93.3917381 C116.863947,96.4407381 117.511947,99.4907381 118.099947,102.551738 C111.874947,98.8687381 105.313947,96.1757381 99.6869473,91.5317381 C93.4429473,81.9557381 83.0219473,81.2997381 74.7609473,88.7427381 C68.3609473,91.4767381 62.2629473,95.8417381 57.1749473,99.4177381 C57.2379473,98.6157381 57.3299473,97.8117381 57.4199473,97.0077381 C57.4259473,96.9807381 57.4319473,96.9547381 57.4379473,96.9287381 C60.6709473,89.1307381 62.3069473,79.1687381 62.3159473,70.2757381 C62.3749473,69.7177381 62.3629473,69.1767381 62.3109473,68.6437381 C62.2979473,68.0247381 62.2749473,67.4217381 62.2449473,66.8177381 C64.6249473,64.5167381 60.7029473,59.7287381 58.9869473,58.4777381 C54.8389473,52.2107381 47.6189473,47.1037381 41.9129473,42.9587381 C52.4909473,42.2097381 63.2849473,40.5637381 73.7149473,38.6487381 C73.9259473,38.6097381 63.9119473,40.4487381 73.7149473,38.6487381 Z M87.7479473,86.0297381 C87.8689473,86.0277381 87.9809473,86.0547381 88.0859473,86.1127381 C87.9739473,86.0857381 87.8609473,86.0517381 87.7479473,86.0297381 C87.8099473,86.0457381 87.8609473,86.0517381 87.7479473,86.0297381 Z M86.3359473,85.8907381 C86.4279473,85.8857381 86.5179473,85.8897381 86.6089473,85.8887381 C86.5169473,85.8847381 86.4269473,85.8917381 86.3359473,85.8907381 Z M139.341947,41.6527381 C135.805947,39.1147381 130.373947,39.5167381 126.245947,39.0347381 C120.935947,38.4157381 115.031947,37.8937381 110.151947,35.5707381 C107.692947,30.9947381 104.929947,26.5477381 102.185947,22.1077381 C102.060947,21.4927381 101.756947,20.9947381 101.272947,20.6147381 C97.4369473,14.3837381 94.4189473,7.21973809 89.4559473,1.77573809 C89.2959473,1.11373809 88.8499473,0.668738085 88.1159473,0.439738085 C87.8549473,0.292738085 87.5459473,0.387738085 87.4129473,0.626738085 C84.6379473,2.36873809 82.4799473,11.1907381 81.1489473,14.1237381 C78.0039473,21.0577381 74.7789473,28.1977381 72.3959473,35.4287381 C66.4919473,36.4827381 60.5059473,36.9077381 54.5449473,37.5087381 C51.1909473,37.8467381 39.4719473,37.6847381 36.8889473,40.4117381 C32.5779473,44.9617381 45.6189473,54.8597381 48.7159473,57.6847381 C56.3659473,64.6607381 60.2239473,68.6497381 57.7829473,79.1867381 C56.6179473,84.2207381 49.9879473,105.093738 55.7829473,106.609738 C59.1689473,107.494738 68.6879473,100.248738 71.3709473,98.7497381 C76.0509473,96.1367381 81.2799473,92.5987381 86.2739473,90.8637381 C90.9759473,89.2307381 94.1069473,92.5277381 97.9999473,95.2447381 C102.877947,98.6497381 107.649947,101.544738 113.084947,103.943738 C118.245947,106.221738 123.564947,110.945738 122.821947,102.774738 C122.242947,96.4017381 120.899947,89.6877381 119.530947,83.4327381 C118.710947,79.6847381 115.545947,73.6647381 116.212947,69.9417381 C116.901947,66.0937381 121.461947,63.9477381 123.881947,61.1067381 C128.955947,56.2447381 133.909947,51.2667381 138.660947,46.0887381 C138.986947,45.9497381 139.225947,45.7007381 139.375947,45.4067381 C139.566947,45.2477381 139.721947,45.0527381 139.837947,44.8217381 C140.649947,43.9307381 141.501947,41.6747381 139.341947,41.6527381 C136.248947,39.4337381 140.418947,41.6637381 139.341947,41.6527381 L139.341947,41.6527381 Z" id="Fill-961"></path>
                    <path d="M121.626947,51.0617381 C122.102947,50.8057381 122.422947,50.2487381 121.998947,49.7377381 C121.894947,49.6637381 121.827947,49.5687381 121.799947,49.4517381 C121.829947,46.7747381 118.250947,52.8817381 121.626947,51.0617381" id="Fill-962"></path>
                    <path d="M39.5609473,28.1987381 L39.5599473,28.1997381 C39.5659473,28.0887381 39.5849473,27.9837381 39.5599473,27.8607381 C39.5609473,27.9727381 39.5609473,28.0857381 39.5609473,28.1987381 Z M39.5179473,28.5107381 C40.6739473,26.7867381 37.9709473,26.9677381 37.1979473,27.7937381 C36.3179473,28.7327381 38.8779473,30.5147381 39.5179473,28.5107381 C39.7879473,28.1077381 39.1659473,29.6147381 39.5179473,28.5107381 L39.5179473,28.5107381 Z" id="Fill-963"></path>
                    <path d="M59.0809473,46.8497381 C58.4249473,46.5327381 57.3579473,46.7357381 57.2189473,47.6077381 C57.0759473,48.5057381 57.3139473,49.2697381 58.0499473,49.7737381 C58.2449473,50.0447381 58.4869473,50.2797381 58.7459473,50.4397381 C59.5739473,50.9537381 60.4869473,50.2697381 60.5549473,49.4017381 C60.6409473,48.3117381 60.0649473,47.3257381 59.0809473,46.8497381" id="Fill-964"></path>
                    <path d="M70.8009473,44.6187381 C69.5439473,44.9627381 69.4609473,45.9087381 69.8549473,46.7627381 C69.9019473,47.8877381 70.8939473,48.7847381 72.0689473,48.9047381 C72.7789473,48.9777381 73.2789473,48.2677381 73.3249473,47.6487381 C73.4339473,46.1767381 72.7059473,44.0967381 70.8009473,44.6187381" id="Fill-965"></path>
                    <path d="M67.6479473,59.7877381 C67.6539473,59.7847381 67.6569473,59.7807381 67.6619473,59.7787381 C68.5479473,60.2477381 69.7759473,59.9717381 70.2359473,58.9457381 C70.8989473,57.4687381 69.5689473,56.0277381 68.0309473,56.3437381 C66.5469473,56.6487381 65.6549473,58.4547381 66.6789473,59.6627381 C66.9189473,59.9447381 67.3469473,59.9357381 67.6479473,59.7877381" id="Fill-966"></path>
                    <path d="M66.7749473,80.2887381 C65.2859473,80.0667381 64.6009473,82.2957381 66.1379473,82.5997381 C66.2359473,82.6187381 66.3349473,82.6377381 66.4329473,82.6577381 C66.7189473,82.8457381 67.0489473,82.9807381 67.4409473,82.9677381 C68.1229473,82.9447381 68.4629473,82.3747381 68.3689473,81.7497381 C68.2479473,80.9397381 67.5619473,80.4067381 66.7749473,80.2887381" id="Fill-967"></path>
                    <path d="M77.7469473,71.2477381 C77.6179473,71.2637381 77.5089473,71.3007381 77.3919473,71.3287381 C77.0829473,71.2877381 76.7709473,71.4447381 76.5619473,71.6767381 C76.2309473,71.9217381 75.9889473,72.2747381 75.8539473,72.7737381 C75.6189473,73.6497381 76.6919473,74.6757381 77.5219473,74.0557381 C78.0129473,73.6897381 78.2179473,73.4397381 78.4189473,72.8637381 C78.5129473,72.5947381 78.4639473,72.3247381 78.3419473,72.0867381 C78.4449473,71.6957381 78.2089473,71.1887381 77.7469473,71.2477381" id="Fill-968"></path>
                    <path d="M48.4129473,74.6627381 C48.1179473,73.3977381 46.5929473,72.9417381 45.7439473,73.9167381 C45.5019473,73.8527381 45.2359473,73.9007381 45.0559473,74.2027381 C44.4309473,75.2487381 44.8089473,76.7447381 46.0919473,77.0667381 C46.6589473,77.2087381 47.1989473,77.0427381 47.6269473,76.7177381 C47.7289473,76.7047381 47.8319473,76.7047381 47.9309473,76.6767381 C48.7469473,76.4467381 49.0839473,75.2177381 48.4129473,74.6627381" id="Fill-969"></path>
                    <path d="M40.8019473,62.6977381 C40.5909473,62.7667381 40.4709473,62.9147381 40.3089473,63.0277381 C38.8169473,62.9687381 38.0089473,64.7537381 39.0219473,65.9547381 C40.0729473,67.2007381 42.7279473,66.9107381 43.3929473,65.3947381 C44.0869473,63.8137381 42.3689473,62.1857381 40.8019473,62.6977381" id="Fill-970"></path>
                    <path d="M57.0749473,27.5707381 C57.3029473,28.0077381 57.6289473,28.3857381 58.0719473,28.5527381 C58.9549473,28.8867381 59.8559473,28.3397381 60.1769473,27.4977381 C60.3739473,26.9817381 60.2899473,26.4357381 60.0559473,25.9617381 C60.1829473,25.6207381 60.2019473,25.2297381 60.0319473,24.9097381 C59.1569473,23.2677381 57.2959473,24.2127381 56.8329473,25.6127381 C56.4919473,26.2357381 56.6179473,27.0147381 57.0749473,27.5707381" id="Fill-971"></path>
                    <path d="M114.987947,15.3007381 C115.823947,15.8357381 116.932947,15.1347381 116.932947,14.1847381 C116.931947,13.5117381 116.743947,13.0037381 116.417947,12.5547381 C116.319947,12.3147381 116.155947,12.1107381 115.918947,12.0087381 C115.825947,11.9257381 115.744947,11.8407381 115.638947,11.7597381 C115.291947,11.4947381 114.631947,11.5147381 114.281947,11.7597381 C113.788947,12.1057381 113.559947,12.3927381 113.368947,12.9577381 C113.228947,13.3727381 113.374947,13.9517381 113.707947,14.2407381 C113.758947,14.2857381 113.809947,14.3297381 113.860947,14.3737381 C114.014947,14.5067381 114.177947,14.5947381 114.342947,14.6447381 C114.497947,14.8887381 114.699947,15.1177381 114.987947,15.3007381" id="Fill-972"></path>
                    <path d="M91.6639473,33.3217381 C92.8699473,33.8077381 94.2459473,32.9917381 94.1749473,31.6447381 C94.1149473,30.4937381 92.9569473,29.7057381 91.8829473,30.0557381 C91.6639473,29.4317381 90.6949473,29.2067381 90.5269473,30.0087381 C90.2639473,31.2597381 90.2749473,32.7617381 91.6639473,33.3217381" id="Fill-973"></path>
                    <path d="M84.7339473,44.3027381 C84.2949473,44.5397381 83.9789473,45.0007381 83.8389473,45.4927381 C83.8299473,45.5167381 83.8209473,45.5367381 83.8129473,45.5617381 C83.7979473,45.6217381 83.8009473,45.6807381 83.7919473,45.7407381 C83.5729473,46.6557381 83.8509473,47.7787381 84.6149473,48.2647381 C85.9659473,49.1217381 87.3089473,47.5627381 87.3549473,46.2787381 C87.4049473,44.8927381 86.1619473,43.5337381 84.7339473,44.3027381" id="Fill-974"></path>
                    <path d="M106.487947,51.6497381 C109.233947,49.5287381 104.735947,45.1207381 103.137947,48.2247381 C102.957947,48.5727381 103.004947,48.9567381 103.268947,49.2457381 C103.380947,49.3677381 103.505947,49.4627381 103.618947,49.5737381 C103.475947,49.8407381 103.392947,50.1487381 103.419947,50.4997381 C103.533947,52.0197381 105.388947,52.4987381 106.487947,51.6497381" id="Fill-975"></path>
                    <path d="M92.0769473,57.1527381 C89.8139473,55.3117381 87.4089473,59.3207381 89.0889473,59.9567381 C89.8229473,60.8267381 91.0959473,61.1567381 92.0669473,60.4067381 C93.0989473,59.6097381 93.0909473,57.9777381 92.0769473,57.1527381" id="Fill-976"></path>
                    <path d="M95.2079473,71.6337381 C95.1459473,71.1477381 94.6369473,70.7947381 94.1399473,70.9107381 C93.7339473,71.0057381 93.5389473,71.0937381 93.1819473,71.3147381 C92.7859473,71.5607381 92.4749473,72.1317381 92.6569473,72.6047381 C93.1709473,73.9467381 94.2659473,75.0127381 95.7279473,74.1777381 C96.2869473,73.8587381 96.4019473,73.1737381 96.1339473,72.6277381 C95.9309473,72.2117381 95.5899473,71.8677381 95.2079473,71.6337381" id="Fill-977"></path>
                    <path d="M108.774947,57.9167381 C108.757947,57.9257381 108.740947,57.9387381 108.723947,57.9487381 C108.271947,57.7967381 107.768947,57.7877381 107.273947,58.0427381 C106.649947,58.3627381 106.738947,59.2437381 107.273947,59.5857381 C107.286947,59.5937381 107.335947,59.6277381 107.377947,59.6567381 C107.373947,59.7847381 107.343947,59.9017381 107.377947,60.0457381 C107.582947,60.8967381 108.543947,61.4187381 109.358947,61.1277381 C110.641947,60.6697381 110.442947,59.4057381 109.668947,58.5837381 C109.760947,58.1227381 109.271947,57.6327381 108.774947,57.9167381" id="Fill-978"></path>
                    <path d="M104.634947,8.55473809 C105.162947,8.53473809 105.680947,8.19873809 105.651947,7.57973809 C105.616947,6.85073809 105.357947,6.27773809 104.788947,5.80773809 C104.248947,5.36273809 103.355947,5.33173809 102.984947,6.04073809 C102.492947,6.97673809 102.568947,7.71073809 103.255947,8.50773809 C103.599947,8.90673809 104.213947,8.84573809 104.634947,8.55473809" id="Fill-979"></path>
                    <path d="M116.347947,28.6567381 C116.369947,28.6787381 116.391947,28.7007381 116.414947,28.7227381 C116.381947,28.7257381 116.351947,28.7157381 116.319947,28.7207381 C116.328947,28.6987381 116.337947,28.6777381 116.347947,28.6567381 Z M116.893947,28.2877381 C115.667947,27.7337381 114.345947,28.9237381 114.809947,30.1947381 C114.894947,30.4287381 115.061947,30.6507381 115.266947,30.8257381 C115.298947,30.9347381 115.304947,31.0397381 115.361947,31.1497381 C115.683947,31.7747381 116.643947,31.8857381 117.113947,31.3757381 C117.392947,31.0737381 117.604947,30.6987381 117.725947,30.3117381 C117.760947,30.2297381 117.780947,30.1477381 117.789947,30.0607381 C117.925947,29.3617381 117.714947,28.6587381 116.893947,28.2877381 L116.893947,28.2877381 Z" id="Fill-980"></path>
                    <path d="M137.104947,15.1797381 C136.997947,15.2567381 136.930947,15.3247381 136.841947,15.3947381 C136.515947,15.5947381 136.296947,15.8447381 136.184947,16.1397381 C136.149947,16.2007381 136.107947,16.2337381 136.073947,16.3027381 C135.796947,16.8607381 136.039947,17.6287381 136.545947,17.9387381 C136.566947,17.9647381 136.570947,17.9937381 136.591947,18.0197381 C137.008947,18.5217381 137.895947,18.4617381 138.321947,18.0197381 C138.813947,17.5087381 139.025947,16.9967381 139.023947,16.2817381 C139.020947,15.3837381 137.915947,14.6007381 137.104947,15.1797381" id="Fill-981"></path>
                    <path d="M140.583947,62.1427381 C140.577947,62.0967381 140.566947,62.0367381 140.569947,62.0127381 C140.588947,61.8717381 140.455947,61.7407381 140.332947,61.7027381 C139.477947,61.4297381 138.919947,62.1907381 138.753947,62.9557381 C138.519947,64.0277381 138.955947,65.2087381 139.999947,65.6517381 C141.173947,66.1487381 142.522947,65.4337381 142.665947,64.1577381 C142.806947,62.9097381 141.756947,61.9947381 140.583947,62.1427381" id="Fill-982"></path>
                    <path d="M106.649947,81.8747381 C106.545947,81.7657381 106.427947,81.7057381 106.283947,81.6807381 C105.151947,81.2187381 103.803947,81.9747381 104.036947,83.5077381 C104.046947,83.5717381 104.114947,83.6327381 104.145947,83.6987381 C104.052947,84.1407381 104.034947,84.6117381 104.201947,85.1337381 C104.401947,85.7597381 105.070947,86.2127381 105.736947,86.0057381 C107.194947,85.5507381 108.132947,83.7627381 107.171947,82.3897381 C107.018947,82.1717381 106.839947,82.0077381 106.649947,81.8747381" id="Fill-983"></path>
                    <path d="M129.618947,72.3737381 C129.535947,70.4707381 127.281947,70.1947381 126.024947,71.1537381 C124.740947,72.1317381 124.374947,74.1247381 125.949947,75.0037381 C126.561947,75.3447381 127.320947,74.4657381 126.729947,73.9917381 C126.398947,73.7257381 126.340947,73.4887381 126.417947,73.2747381 C127.235947,74.8687381 129.697947,74.1737381 129.618947,72.3737381" id="Fill-984"></path>
                    <path d="M133.074947,89.8347381 C132.438947,89.7147381 131.453947,89.6967381 130.613947,89.9027381 C130.592947,89.9067381 130.571947,89.9047381 130.551947,89.9097381 C130.527947,89.9157381 130.497947,89.9297381 130.472947,89.9367381 C130.357947,89.9687381 130.249947,90.0057381 130.142947,90.0487381 C128.972947,90.5087381 127.402947,91.7167381 128.573947,92.8727381 C128.891947,93.1857381 129.449947,92.9087381 129.402947,92.4797381 C130.244947,93.9307381 132.601947,94.6317381 133.418947,92.7797381 C133.585947,92.4027381 133.611947,92.0477381 133.570947,91.7157381 C134.089947,91.1127381 134.004947,90.0087381 133.074947,89.8347381" id="Fill-985"></path>
                    <path d="M149.187947,76.9007381 C148.647947,76.5647381 148.051947,76.8817381 147.807947,77.3947381 C146.196947,77.8007381 145.736947,80.1037381 147.644947,80.7907381 C149.988947,81.6347381 151.106947,78.0937381 149.187947,76.9007381" id="Fill-986"></path>
                    <path d="M156.176947,46.3767381 C156.274947,46.3577381 156.372947,46.3357381 156.457947,46.2937381 C157.609947,45.7287381 158.232947,44.1677381 156.714947,43.5107381 C155.006947,42.7717381 153.906947,44.9717381 153.817947,46.3217381 C153.770947,47.0467381 154.599947,47.3697381 155.161947,47.0937381 C155.558947,46.8987381 155.856947,46.7177381 156.165947,46.3907381 C156.169947,46.3857381 156.172947,46.3807381 156.176947,46.3767381" id="Fill-987"></path>
                    <path d="M39.9189473,93.3897381 C39.2989473,92.8167381 38.1189473,93.0087381 37.8609473,93.9397381 C37.8519473,93.9377381 37.8429473,93.9357381 37.8339473,93.9327381 C37.7339473,94.2277381 37.6699473,94.5297381 37.6419473,94.8397381 C37.5449473,95.4807381 37.7229473,95.9617381 38.2519473,96.3397381 C38.5829473,96.5757381 38.8979473,96.6177381 39.2749473,96.4727381 C39.6289473,96.3377381 39.8519473,96.1187381 40.0119473,95.8507381 C40.2959473,95.7287381 40.5479473,95.5047381 40.7119473,95.1317381 C41.0729473,94.3107381 40.5819473,93.6077381 39.9189473,93.3897381" id="Fill-988"></path>
                    <path d="M23.3619473,77.6987381 C23.1759473,77.7497381 23.0589473,77.8777381 22.9219473,77.9847381 C22.5669473,78.0437381 22.2359473,78.3117381 22.2229473,78.7237381 C22.1659473,80.4777381 24.0499473,81.2387381 25.4639473,80.4817381 C25.9099473,80.2427381 26.1839473,79.6067381 26.0189473,79.1177381 C25.6249473,77.9537381 24.5649473,77.3657381 23.3619473,77.6987381" id="Fill-989"></path>
                    <path d="M14.4989473,61.5437381 C14.9329473,62.7397381 16.1869473,62.7447381 16.8459473,62.1227381 C17.6629473,62.1677381 18.4949473,61.3037381 18.0789473,60.2577381 C17.2059473,58.0607381 13.6679473,59.2567381 14.4989473,61.5437381" id="Fill-990"></path>
                    <path d="M3.53594731,77.4027381 C2.97494731,77.1347381 2.44094731,77.3107381 2.12494731,77.6707381 C1.16394731,77.8267381 0.341947314,78.2477381 0.404947314,79.5617381 C0.479947314,81.1107381 2.07594731,82.7507381 3.60794731,81.7167381 C4.15794731,81.3457381 4.41294731,80.5377381 4.15894731,79.9357381 C4.93494731,79.4597381 5.17394731,78.1857381 4.22394731,77.7327381 C3.99494731,77.6227381 3.76594731,77.5127381 3.53594731,77.4027381" id="Fill-991"></path>
                    <path d="M67.2099473,15.6127381 C67.3419473,15.7387381 67.4969473,15.8007381 67.6509473,15.8567381 C67.6649473,15.8777381 67.6719473,15.9047381 67.6869473,15.9247381 C68.2959473,16.7387381 69.4269473,16.5707381 69.9539473,15.7457381 C70.9519473,14.1857381 69.3429473,12.6597381 68.0259473,12.8867381 C67.8009473,12.8277381 67.5569473,12.8737381 67.4359473,13.1237381 C67.4309473,13.1327381 67.4309473,13.1437381 67.4269473,13.1517381 C67.2039473,13.3167381 67.0039473,13.5367381 66.8599473,13.8687381 C66.6269473,14.4097381 66.6089473,15.0347381 67.0669473,15.4757381 C67.1149473,15.5207381 67.1629473,15.5667381 67.2099473,15.6127381" id="Fill-992"></path>
                    <path d="M71.2519473,107.692738 C70.9209473,107.799738 70.7879473,107.764738 70.6189473,107.467738 L70.6179473,107.468738 C70.5499473,107.393738 70.5119473,107.299738 70.4349473,107.230738 C69.7009473,106.576738 68.4219473,106.997738 68.4339473,108.059738 C68.4429473,108.912738 68.8579473,109.540738 69.4329473,109.899738 C69.5029473,110.361738 70.0349473,110.797738 70.4879473,110.462738 C70.5709473,110.400738 70.5979473,110.312738 70.6669473,110.243738 C71.3339473,110.232738 72.0119473,109.934738 72.4829473,109.294738 C73.0519473,108.523738 72.1099473,107.414738 71.2519473,107.692738" id="Fill-993"></path>
                    <path d="M83.5789473,101.107738 C83.2899473,100.497738 82.6929473,100.297738 82.0599473,100.571738 C81.3809473,100.865738 81.0649473,101.298738 80.8229473,101.985738 C80.3529473,103.318738 82.2779473,104.015738 82.9979473,103.048738 C83.2289473,102.988738 83.4529473,102.867738 83.6299473,102.626738 C83.7109473,102.516738 83.7909473,102.407738 83.8719473,102.297738 C84.2099473,101.838738 83.9759473,101.357738 83.5789473,101.107738" id="Fill-994"></path>
                    <path d="M159.824947,61.3797381 C158.396947,60.9487381 158.046947,62.5477381 158.481947,63.5227381 C158.459947,63.5387381 158.431947,63.5387381 158.410947,63.5567381 C158.348947,63.6107381 158.286947,63.6647381 158.224947,63.7187381 C157.812947,64.0787381 157.836947,64.6717381 158.043947,65.1197381 C158.223947,65.5087381 158.356947,65.6747381 158.660947,65.9757381 C159.132947,66.4417381 160.137947,66.4297381 160.441947,65.7457381 C160.929947,64.6467381 161.514947,61.8907381 159.824947,61.3797381" id="Fill-995"></path>
                    <path d="M157.940947,91.6047381 C156.542947,91.0847381 155.326947,92.1457381 155.593947,93.5787381 C155.663947,93.9527381 155.902947,94.2077381 156.201947,94.3687381 C156.212947,94.4357381 156.211947,94.5007381 156.226947,94.5667381 C156.408947,95.3917381 157.655947,95.7827381 158.219947,95.0927381 C159.072947,94.0477381 159.611947,92.2267381 157.940947,91.6047381" id="Fill-996"></path>
                </g>
                <path d="M498.00754,327.709038 C487.325009,328.080805 476.631935,328.486805 465.983293,329.165475 C465.971243,326.620765 465.912503,324.073052 465.769416,321.539152 C465.72649,313.427551 466.05333,305.282917 465.154144,297.192336 C465.002774,296.317873 464.822786,295.548514 464.378465,294.807984 C463.586972,293.883672 462.41291,293.129929 461.387959,292.288499 C460.594959,291.931146 459.862206,291.307731 459.269527,290.786417 C456.081712,288.618278 452.777169,286.105399 450.316083,283.394926 C455.397157,284.474791 460.805824,283.917441 465.99233,283.90603 C471.959033,283.892216 477.927243,283.948071 483.8947,283.942666 C496.041984,283.932456 508.188515,283.944468 520.335799,283.94627 C520.701799,283.970894 521.064033,284.020142 521.421749,284.093415 C527.512712,287.039921 512.234848,296.533486 510.39054,298.359287 C508.07028,300.656553 503.880107,303.744799 503.322824,306.759173 C502.671404,310.289455 507.851132,313.768687 510.800219,315.968057 C514.488836,318.71877 521.115243,323.997978 513.65291,326.633978 C508.858009,328.328249 503.07807,327.532464 498.00754,327.709038 C487.325009,328.080805 502.481626,327.553485 498.00754,327.709038 Z M450.652712,289.27953 C450.532972,288.369032 450.551799,287.331809 450.422268,286.328219 C450.428293,286.16726 450.441848,286.0051 450.442601,285.844142 C454.147033,289.379829 458.987873,291.889705 462.76912,295.287857 C458.795836,295.413381 454.723144,295.257828 450.745342,295.227798 C450.716725,293.227225 450.917799,291.294518 450.652712,289.27953 Z M202.945268,290.22186 C204.89049,288.69095 207.082725,287.167247 208.146836,285.142049 C207.978144,287.719191 209.183083,293.250047 207.494663,295.552118 C206.86207,295.567133 206.230984,295.595361 205.598391,295.612778 C202.299873,295.063836 198.740033,295.775538 195.421935,295.78755 C198.172206,294.111897 200.487194,292.156969 202.945268,290.22186 C204.89049,288.69095 200.487194,292.156969 202.945268,290.22186 Z M523.071009,322.576375 C520.059416,317.780645 514.357046,313.909826 509.324169,310.470233 C507.426391,309.173554 505.781651,308.726714 506.302786,306.529146 C506.739577,304.684727 509.217231,302.878745 510.822811,301.609093 C515.442996,297.95689 528.94433,290.562396 524.820428,284.26098 C524.025922,283.494024 523.555996,282.394339 522.116095,282.231578 C509.339231,282.232779 496.561614,282.246593 483.783996,282.234581 C477.901638,282.229176 472.013256,282.303649 466.131651,282.255602 C460.72449,282.211158 455.043959,281.620776 449.779132,282.891629 C449.20528,282.548691 448.226268,282.8616 448.410021,283.502432 C448.375379,283.570899 448.376132,283.649577 448.349774,283.720447 C448.35128,286.54203 449.104367,289.833277 448.477046,292.5936 C448.450688,293.550944 448.407762,294.507688 448.436379,295.471639 C409.390354,295.491458 370.345083,295.512479 331.299058,295.5341 C330.533169,295.72689 329.575243,295.66563 328.713712,295.571937 C328.472725,295.568934 328.23249,295.552118 327.992256,295.535902 C321.576712,295.539505 315.161169,295.542508 308.745626,295.546112 C304.624737,295.406174 300.524182,295.389958 296.403293,295.552718 C267.54954,295.567733 238.6137,294.969543 209.771243,295.512479 C210.278824,292.590597 209.808898,289.485534 209.839021,286.540228 C209.860861,284.354072 210.872256,282.116264 207.402033,283.243576 C202.886527,284.710824 198.753589,290.405041 195.742749,293.2026 C195.205799,293.610403 193.619799,294.573753 193.489515,295.274044 C193.368268,295.383952 193.252293,295.495662 193.130293,295.604369 C193.109206,295.600766 193.08812,295.597763 193.067786,295.594159 C192.546651,296.210968 192.007441,296.817566 191.727293,297.522061 C191.441873,299.800108 190.534404,304.206054 191.710725,306.407226 C191.601527,313.570492 191.825194,320.740364 191.756663,327.906033 C189.338503,327.24478 184.687441,328.107832 182.089293,328.091015 C178.369799,328.066391 174.674404,328.113237 170.956416,328.19732 C163.549811,328.366086 156.213996,328.286208 148.84354,327.632162 C144.811515,327.274209 138.332712,327.698228 140.014354,323.099491 C141.647046,318.637089 147.655922,316.03232 150.635885,312.218558 C153.600033,309.329708 155.394638,305.947172 152.746033,302.499171 C150.318083,299.338253 146.416342,296.805554 143.257144,294.122708 C141.339786,292.494502 133.831515,287.104185 135.284972,284.788901 C136.507231,284.123444 138.063861,283.921045 139.726675,283.907832 C140.276428,283.919844 140.826182,283.930054 141.376688,283.939062 C143.336219,284.025548 145.30328,284.206326 146.953293,284.084406 C147.62354,284.22074 148.445157,284.153474 149.077749,284.005128 C149.232132,284.003926 149.387268,284.003926 149.554453,283.996719 C159.66012,283.979302 169.760515,283.787113 179.866935,283.882006 C184.618157,283.92645 189.370885,283.985308 194.121354,283.89582 C198.108194,283.820746 203.799268,282.644786 207.316182,283.00394 C195.39633,281.79795 183.346947,282.366711 171.369107,282.340886 C165.376046,282.327673 159.383737,282.21356 153.390675,282.167315 C150.059021,282.141489 146.726614,282.13188 143.394959,282.169117 C141.667379,282.188336 135.672058,281.539095 134.707354,282.664005 C125.200391,283.823749 136.701527,292.551558 139.057182,294.660238 C142.333861,297.593532 151.995959,302.783851 151.414577,307.115324 C151.054601,309.792765 147.311762,311.504454 145.167725,313.270796 C142.31428,315.621515 139.765836,318.291749 137.163169,320.818441 C135.280453,322.646044 131.222824,325.505465 131.229601,328.155879 C131.238638,331.71499 136.151774,331.363643 139.270305,331.006891 C141.441453,331.575052 143.654774,331.353433 145.883157,331.188871 C151.355083,331.764238 156.61012,331.510188 162.103132,331.426705 C167.31449,331.346827 172.266786,331.577454 177.470614,331.098782 C182.227861,330.967853 186.983601,330.857344 191.737083,330.889776 C191.719762,334.517354 191.74612,338.143131 191.905021,341.759298 C192.531589,341.959896 193.221416,342.016952 193.904465,342.093828 C228.733959,343.696809 263.916651,342.682408 298.793589,342.69442 L404.468935,342.730456 C414.735762,342.734059 425.001836,342.740666 435.268663,342.749074 C440.236021,342.753278 445.203379,342.758083 450.17149,342.763488 C454.696033,342.768293 459.7997,343.301619 464.26249,342.749675 C466.489367,343.346664 465.771675,338.08187 465.782219,337.280079 C465.99007,335.310136 465.95091,333.32758 465.978021,331.352232 C474.567725,331.318599 483.222194,331.242324 491.778009,330.593083 C499.932428,329.974473 508.557527,328.984096 516.750354,329.698801 C516.852021,329.724626 516.961219,329.728831 517.074935,329.723425 C519.624885,329.978076 523.796231,331.334214 525.347589,328.863377 C526.589428,326.885025 524.126083,324.257433 523.071009,322.576375 C520.511268,318.501356 524.324144,324.573345 523.071009,322.576375 L523.071009,322.576375 Z" id="Fill-997" fill="#38B6AB"></path>
                <path d="M253.3085,262.264 L254.4605,262.648 C254.588501,262.648 254.876498,262.584001 255.3245,262.456 C255.964503,262.135998 256.2845,262.167998 256.2845,262.552 C256.2845,263.384004 255.900504,264.039998 255.1325,264.52 C254.364496,265.000002 253.820502,265.24 253.5005,265.24 C251.900492,265.24 250.460506,264.408008 249.1805,262.744 C247.900494,261.079992 247.004503,259.384009 246.4925,257.656 C245.980497,255.927991 245.404503,253.592015 244.7645,250.648 C243.996496,252.888011 243.5805,254.071999 243.5165,254.2 C243.4525,254.328001 243.164503,254.711997 242.6525,255.352 C241.692495,256.632006 240.844504,257.335999 240.1085,257.464 C239.372496,257.592001 238.684503,257.656 238.0445,257.656 C235.228486,257.656 232.444514,256.376013 229.6925,253.816 C226.300483,250.615984 224.6045,246.872021 224.6045,242.584 C224.6045,241.047992 224.764498,239.096012 225.0845,236.728 C225.404502,234.359988 226.52449,232.120011 228.4445,230.008 C230.620511,227.639988 232.860488,226.456 235.1645,226.456 C236.316506,226.456 237.596493,227.095994 239.0045,228.376 C240.668508,229.848007 241.5005,231.57599 241.5005,233.56 C241.5005,235.54401 240.860506,237.367992 239.5805,239.032 C239.068497,239.800004 238.380504,240.263999 237.5165,240.424 C236.652496,240.584001 235.740505,240.392003 234.7805,239.848 C233.820495,239.303997 233.276501,238.728003 233.1485,238.12 C233.020499,237.511997 233.004499,237.016002 233.1005,236.632 C233.1965,236.247998 233.372499,235.816002 233.6285,235.336 C233.884501,234.855998 234.0445,234.456002 234.1085,234.136 C234.236501,233.879999 234.444499,233.736 234.7325,233.704 C235.020501,233.672 235.244499,233.767999 235.4045,233.992 C235.564501,234.216001 235.6125,234.487998 235.5485,234.808 C235.164498,235.768005 235.036499,236.631996 235.1645,237.4 C235.2285,237.592001 235.484498,237.815999 235.9325,238.072 C237.020505,238.584003 237.868497,238.152007 238.4765,236.776 C239.084503,235.399993 239.3885,234.424003 239.3885,233.848 C239.3885,233.271997 239.3565,232.728003 239.2925,232.216 C239.2285,231.703997 238.716505,231.096004 237.7565,230.392 C236.796495,229.687996 236.124502,229.336 235.7405,229.336 C232.988486,229.336 231.004506,231.159982 229.7885,234.808 C228.956496,237.304012 228.5405,239.255993 228.5405,240.664 C228.5405,242.072007 228.604499,243.127996 228.7325,243.832 C229.116502,246.392013 230.26849,248.615991 232.1885,250.504 C234.10851,252.392009 236.06049,253.336 238.0445,253.336 C238.428502,253.336 238.780498,253.304 239.1005,253.24 C239.420502,253.176 239.852497,252.824003 240.3965,252.184 C240.940503,251.543997 241.500497,250.856004 242.0765,250.12 C242.652503,249.383996 243.036499,248.904001 243.2285,248.68 C243.420501,248.455999 243.676498,247.832005 243.9965,246.808 C243.292496,242.263977 242.9405,238.472015 242.9405,235.432 C242.9405,232.391985 242.9725,230.296006 243.0365,229.144 C243.1005,227.991994 243.244499,226.616008 243.4685,225.016 C243.692501,223.415992 243.8365,222.296003 243.9005,221.656 C244.604503,215.895971 246.300487,210.808022 248.9885,206.392 C249.756504,205.111994 250.588495,204.472 251.4845,204.472 L251.6765,204.472 C253.72451,204.792002 254.7485,207.351976 254.7485,212.152 C254.7485,218.296031 253.084517,225.36796 249.7565,233.368 C249.180497,234.776007 248.412505,236.343991 247.4525,238.072 C247.5165,240.952014 247.708498,243.41599 248.0285,245.464 C248.348502,247.51201 248.604499,249.223993 248.7965,250.6 C248.988501,251.976007 249.180499,253.191995 249.3725,254.248 C249.564501,255.304005 249.852498,256.503993 250.2365,257.848 C250.940503,260.664014 251.964493,262.135999 253.3085,262.264 Z M247.7405,232.216 C250.876516,224.21596 252.4445,216.920033 252.4445,210.328 C252.4445,208.40799 252.092503,207.256002 251.3885,206.872 C251.3245,206.872 251.2925,206.904 251.2925,206.968 C251.2925,207.288002 251.228501,207.575999 251.1005,207.832 C250.972499,208.088001 250.812501,208.439998 250.6205,208.888 C250.428499,209.336002 250.220501,209.831997 249.9965,210.376 C249.772499,210.920003 249.532501,211.767994 249.2765,212.92 C249.020499,214.072006 248.8445,214.999996 248.7485,215.704 C248.652499,216.408004 248.540501,217.511992 248.4125,219.016 C248.284499,220.520008 248.108501,222.167991 247.8845,223.96 C247.660499,225.752009 247.484501,228.759979 247.3565,232.984 L247.7405,232.216 Z M277.8365,230.248 C279.148507,231.944008 279.8045,233.639992 279.8045,235.336 C279.8045,237.032008 279.180506,238.743991 277.9325,240.472 C276.684494,242.200009 275.10051,243.096 273.1805,243.16 C272.284495,243.16 270.700511,242.664005 268.4285,241.672 C266.156489,240.679995 264.572504,239.800004 263.6765,239.032 C261.69249,244.024025 262.236485,248.631979 265.3085,252.856 C266.524506,254.520008 267.868493,255.352 269.3405,255.352 C270.812507,255.352 272.444491,254.728006 274.2365,253.48 C276.028509,252.231994 277.164498,251.000006 277.6445,249.784 C278.124502,248.567994 278.684497,247.992 279.3245,248.056 C279.708502,248.12 279.9005,248.343998 279.9005,248.728 C279.9005,249.112002 279.772501,249.623997 279.5165,250.264 C278.684496,252.504011 277.420508,254.423992 275.7245,256.024 C274.028491,257.624008 272.15651,258.424 270.1085,258.424 C266.972484,258.36 264.38051,257.272011 262.3325,255.16 C260.34849,253.11199 258.940504,250.392017 258.1085,247 C258.1085,242.775979 259.14849,238.840018 261.2285,235.192 C263.30851,231.543982 266.268481,229.144006 270.1085,227.992 C271.004504,227.799999 272.188493,227.704 273.6605,227.704 C275.132507,227.704 276.524493,228.551992 277.8365,230.248 Z M276.0125,238.744 C276.684503,237.591994 277.0205,236.472005 277.0205,235.384 C277.0205,234.295995 276.588504,233.208005 275.7245,232.12 C274.860496,231.031995 274.076503,230.488 273.3725,230.488 C272.668496,230.488 271.868504,230.711998 270.9725,231.16 C268.092486,231.992004 265.916507,234.007984 264.4445,237.208 C264.5085,237.208 264.684499,237.351999 264.9725,237.64 C265.260501,237.928001 266.524489,238.471996 268.7645,239.272 C271.004511,240.072004 272.604495,240.472 273.5645,240.472 C274.524505,240.472 275.340497,239.896006 276.0125,238.744 Z M318.3245,232.864 L318.4325,228.112 C318.4325,224.367981 317.892505,221.956005 316.8125,220.876 C316.236497,220.299997 315.444505,220.012 314.4365,220.012 C312.49249,220.012 310.584509,221.109989 308.7125,223.306 C306.840491,225.502011 305.9045,227.60799 305.9045,229.624 C305.9045,230.488004 306.156497,231.621993 306.6605,233.026 C307.164502,234.430007 307.866495,235.114 308.7665,235.078 C309.666504,235.042 310.512496,234.646004 311.3045,233.89 C312.096504,233.133996 312.4925,232.270005 312.4925,231.298 C312.4925,230.325995 312.366501,229.696001 312.1145,229.408 C311.862499,229.119999 311.394503,228.994 310.7105,229.03 C310.026497,229.066 309.594501,228.922002 309.4145,228.598 C309.234499,228.273998 309.216499,227.932002 309.3605,227.572 C309.504501,227.211998 309.792498,227.032 310.2245,227.032 L310.2245,226.924 L311.8985,226.924 C312.798504,226.924 313.536497,227.193997 314.1125,227.734 C314.688503,228.274003 314.9765,229.389992 314.9765,231.082 C314.9765,232.774008 314.328506,234.213994 313.0325,235.402 C311.736493,236.590006 310.188509,237.255999 308.3885,237.4 C307.308495,237.4 306.174506,236.37401 304.9865,234.322 C303.798494,232.26999 303.2045,230.668006 303.2045,229.516 C303.2765,226.779986 304.518488,223.954015 306.9305,221.038 C309.342512,218.121985 311.754488,216.664 314.1665,216.664 C316.578512,216.664 318.576492,217.67199 320.1605,219.688 C322.752513,222.928016 324.156499,227.283973 324.3725,232.756 L324.3725,237.076 C327.972518,228.579958 330.096497,223.864005 330.7445,222.928 C333.624514,218.607978 336.612484,216.448 339.7085,216.448 C341.220508,216.448 342.570494,217.40199 343.7585,219.31 C344.946506,221.21801 345.5405,222.927992 345.5405,224.44 C345.5405,227.752017 345.216503,230.235992 344.5685,231.892 C342.48049,236.932025 341.4365,242.115973 341.4365,247.444 C341.4365,253.780032 342.516489,259.107978 344.6765,263.428 C345.540504,263.428 346.458495,263.158003 347.4305,262.618 C348.402505,262.077997 349.050498,261.915999 349.3745,262.132 C349.698502,262.348001 349.8605,262.635998 349.8605,262.996 C349.8605,263.356002 349.680502,263.643999 349.3205,263.86 C347.30449,265.084006 345.648506,265.714 344.3525,265.75 C343.056493,265.786 341.868505,264.616012 340.7885,262.24 C340.644499,261.879998 340.320502,261.178005 339.8165,260.134 C339.312497,259.089995 338.934501,258.226003 338.6825,257.542 C338.430499,256.857997 338.124502,256.048005 337.7645,255.112 C337.044496,253.09599 336.6845,251.440006 336.6845,250.144 L336.6845,247.228 C336.6845,239.595962 337.548491,233.76402 339.2765,229.732 C340.356505,227.211987 340.8605,225.448005 340.7885,224.44 C340.7885,221.703986 340.428504,220.336 339.7085,220.336 C337.260488,220.336 335.02851,222.063983 333.0125,225.52 C331.500492,228.040013 330.096506,230.667986 328.8005,233.404 C326.424488,238.660026 324.048512,247.047942 321.6725,258.568 C321.6005,259.000002 321.222503,259.252 320.5385,259.324 C319.854497,259.396 319.206503,259.288001 318.5945,259 C317.982497,258.711999 317.6765,258.352002 317.6765,257.92 C318.108502,253.239977 318.3245,248.434025 318.3245,243.502 L318.3245,232.864 Z M361.5155,225.016 C367.46753,225.016 370.4435,227.095979 370.4435,231.256 C370.4435,232.728007 369.963505,234.007995 369.0035,235.096 L369.0995,235.096 C369.739503,236.760008 370.0595,238.519991 370.0595,240.376 C370.0595,242.232009 369.707504,244.15199 369.0035,246.136 C369.835504,250.488022 371.179491,254.807979 373.0355,259.096 C373.163501,259.352001 373.2275,259.655998 373.2275,260.008 C373.2275,260.360002 373.067502,260.743998 372.7475,261.16 C372.427498,261.576002 372.139501,261.784 371.8835,261.784 C371.371497,261.784 370.763504,261.128007 370.0595,259.816 C369.355497,258.503993 368.747503,256.680012 368.2355,254.344 C367.723497,252.007988 367.339501,250.488004 367.0835,249.784 C363.947484,254.328023 360.875515,256.6 357.8675,256.6 L357.5795,256.6 C354.379484,256.6 351.851509,255.59201 349.9955,253.576 C348.139491,251.55999 347.2115,249.208013 347.2115,246.52 C347.2115,243.831987 347.387498,241.46401 347.7395,239.416 C348.091502,237.36799 348.715496,235.192012 349.6115,232.888 C350.507505,230.583988 351.91549,228.728007 353.8355,227.32 C355.88351,225.783992 358.443485,225.016 361.5155,225.016 Z M368.5235,231.736 C368.5235,228.407983 366.475521,226.744 362.3795,226.744 C359.307485,226.744 356.79551,228.247985 354.8435,231.256 C352.89149,234.264015 351.9155,237.511983 351.9155,241 C351.9155,244.488017 352.443495,247.399988 353.4995,249.736 C354.555505,252.072012 356.267488,253.24 358.6355,253.24 C360.171508,253.24 361.579494,252.664006 362.8595,251.512 C364.84351,249.719991 365.8355,248.248006 365.8355,247.096 C365.8355,245.943994 365.643502,244.280011 365.2595,242.104 C364.875498,239.927989 364.6835,238.440004 364.6835,237.64 C364.6835,236.839996 364.843498,236.120003 365.1635,235.48 C364.651497,234.583996 364.283501,233.992001 364.0595,233.704 C363.835499,233.415999 363.931498,233.128001 364.3475,232.84 C364.763502,232.551999 365.131498,232.599998 365.4515,232.984 L365.3555,232.984 C365.803502,233.624003 366.251498,233.976 366.6995,234.04 C366.955501,233.911999 367.179499,233.848 367.3715,233.848 C368.139504,233.079996 368.5235,232.376003 368.5235,231.736 Z M383.4995,255.64 L383.4035,257.944 L383.4035,259.288 C383.4035,259.800003 383.4355,260.247998 383.4995,260.632 C383.5635,261.016002 383.6275,261.415998 383.6915,261.832 C383.7555,262.248002 383.883499,262.599999 384.0755,262.888 C384.267501,263.176001 384.459499,263.415999 384.6515,263.608 C385.099502,263.928002 385.803495,263.896002 386.7635,263.512 C389.259513,262.359994 391.115494,260.024018 392.3315,256.504 C393.547506,252.983982 394.1555,249.464018 394.1555,245.944 C394.1555,245.623998 394.1715,244.968005 394.2035,243.976 C394.2355,242.983995 394.2515,242.296002 394.2515,241.912 C394.123499,240.695994 393.755503,239.720004 393.1475,238.984 C392.539497,238.247996 392.011502,237.752001 391.5635,237.496 C390.411494,237.496 389.579503,238.071994 389.0675,239.224 C388.427497,240.952009 388.1075,242.423994 388.1075,243.64 L388.1075,247.96 C388.1075,250.392012 388.523496,251.608 389.3555,251.608 C389.995503,251.608 390.3155,250.61601 390.3155,248.632 C390.3155,248.055997 390.619497,247.768 391.2275,247.768 C391.835503,247.768 392.203499,248.055997 392.3315,248.632 C392.3315,249.784006 392.091502,250.871995 391.6115,251.896 C391.131498,252.920005 390.411505,253.432 389.4515,253.432 C388.491495,253.432 387.707503,252.808006 387.0995,251.56 C386.491497,250.311994 386.1875,249.112006 386.1875,247.96 C386.443501,239.447957 388.267483,235.16 391.6595,235.096 C392.939506,235.096 394.059495,235.831993 395.0195,237.304 C396.555508,239.800012 397.3235,242.679984 397.3235,245.944 C397.3235,256.312052 394.635527,262.711988 389.2595,265.144 C387.915493,265.784003 386.507507,266.104 385.0355,266.104 C383.563493,266.104 382.219506,265.336008 381.0035,263.8 C379.01949,261.431988 378.0275,258.808014 378.0275,255.928 C378.283501,249.463968 378.539499,245.352009 378.7955,243.592 C379.051501,241.831991 379.387498,239.96001 379.8035,237.976 C380.219502,235.99199 380.539499,234.120009 380.7635,232.36 C380.987501,230.599991 381.259498,228.792009 381.5795,226.936 C380.811496,227.064001 380.011504,227.128 379.1795,227.128 C378.347496,227.128 377.563504,226.760004 376.8275,226.024 C376.091496,225.287996 375.7235,224.504004 375.7235,223.672 C375.7235,222.839996 375.867499,222.344001 376.1555,222.184 C376.443501,222.023999 376.747498,222.023999 377.0675,222.184 C377.387502,222.344001 377.5475,222.647998 377.5475,223.096 L377.6435,223.096 C377.6435,224.568007 378.347493,225.304 379.7555,225.304 C380.267503,225.304 380.939496,225.144002 381.7715,224.824 C381.963501,222.583989 382.0595,219.800017 382.0595,216.472 C382.0595,213.143983 381.611505,209.624019 380.7155,205.912 C380.587499,205.527998 380.635499,205.240001 380.8595,205.048 C381.083501,204.855999 381.259499,204.76 381.3875,204.76 C381.899503,204.76 382.235499,204.999998 382.3955,205.48 C382.555501,205.960002 382.827498,206.567996 383.2115,207.304 C383.595502,208.040004 383.8195,208.599998 383.8835,208.984 C384.843505,213.336022 385.3235,217.879976 385.3235,222.616 C387.115509,221.719996 388.555495,221.272 389.6435,221.272 C392.331513,221.272 394.251494,222.711986 395.4035,225.592 C395.531501,225.976002 395.483501,226.295999 395.2595,226.552 C395.035499,226.808001 394.747502,226.904 394.3955,226.84 C394.043498,226.776 393.803501,226.552002 393.6755,226.168 C393.163497,224.823993 391.851511,224.152 389.7395,224.152 C388.587494,224.152 387.115509,224.599996 385.3235,225.496 C385.3235,229.016018 385.099502,231.991988 384.6515,234.424 C383.883496,239.160024 383.4995,245.367962 383.4995,253.048 L383.4995,255.64 Z M415.6595,225.016 C421.61153,225.016 424.5875,227.095979 424.5875,231.256 C424.5875,232.728007 424.107505,234.007995 423.1475,235.096 L423.2435,235.096 C423.883503,236.760008 424.2035,238.519991 424.2035,240.376 C424.2035,242.232009 423.851504,244.15199 423.1475,246.136 C423.979504,250.488022 425.323491,254.807979 427.1795,259.096 C427.307501,259.352001 427.3715,259.655998 427.3715,260.008 C427.3715,260.360002 427.211502,260.743998 426.8915,261.16 C426.571498,261.576002 426.283501,261.784 426.0275,261.784 C425.515497,261.784 424.907504,261.128007 424.2035,259.816 C423.499497,258.503993 422.891503,256.680012 422.3795,254.344 C421.867497,252.007988 421.483501,250.488004 421.2275,249.784 C418.091484,254.328023 415.019515,256.6 412.0115,256.6 L411.7235,256.6 C408.523484,256.6 405.995509,255.59201 404.1395,253.576 C402.283491,251.55999 401.3555,249.208013 401.3555,246.52 C401.3555,243.831987 401.531498,241.46401 401.8835,239.416 C402.235502,237.36799 402.859496,235.192012 403.7555,232.888 C404.651505,230.583988 406.05949,228.728007 407.9795,227.32 C410.02751,225.783992 412.587485,225.016 415.6595,225.016 Z M422.6675,231.736 C422.6675,228.407983 420.619521,226.744 416.5235,226.744 C413.451485,226.744 410.93951,228.247985 408.9875,231.256 C407.03549,234.264015 406.0595,237.511983 406.0595,241 C406.0595,244.488017 406.587495,247.399988 407.6435,249.736 C408.699505,252.072012 410.411488,253.24 412.7795,253.24 C414.315508,253.24 415.723494,252.664006 417.0035,251.512 C418.98751,249.719991 419.9795,248.248006 419.9795,247.096 C419.9795,245.943994 419.787502,244.280011 419.4035,242.104 C419.019498,239.927989 418.8275,238.440004 418.8275,237.64 C418.8275,236.839996 418.987498,236.120003 419.3075,235.48 C418.795497,234.583996 418.427501,233.992001 418.2035,233.704 C417.979499,233.415999 418.075498,233.128001 418.4915,232.84 C418.907502,232.551999 419.275498,232.599998 419.5955,232.984 L419.4995,232.984 C419.947502,233.624003 420.395498,233.976 420.8435,234.04 C421.099501,233.911999 421.323499,233.848 421.5155,233.848 C422.283504,233.079996 422.6675,232.376003 422.6675,231.736 Z M430.3475,251.224 C430.027498,251.224 429.771501,251.112001 429.5795,250.888 C429.387499,250.663999 429.2915,250.408001 429.2915,250.12 C429.2915,249.831999 430.443489,247.288024 432.7475,242.488 C432.427498,238.775981 432.619497,232.648043 433.3235,224.104 C434.027504,215.559957 434.4115,211.000003 434.4755,210.424 C435.051503,203.959968 436.36349,197.976028 438.4115,192.472 C439.307505,190.103988 440.651491,188.92 442.4435,188.92 C444.299509,188.984 445.723495,190.631984 446.7155,193.864 C447.707505,197.096016 448.2035,200.119986 448.2035,202.936 C448.2035,213.688054 444.619536,225.335937 437.4515,237.88 C437.5155,241.91202 437.899497,246.519974 438.6035,251.704 C439.307504,256.888026 440.235494,260.599989 441.3875,262.84 C441.835502,263.992006 442.1075,264.631999 442.2035,264.76 C442.299501,264.888001 442.3635,265.015999 442.3955,265.144 C442.4275,265.272001 442.4435,265.384 442.4435,265.48 C442.4435,265.576 442.4755,265.624 442.5395,265.624 C443.563505,265.624 444.475496,265.144005 445.2755,264.184 C446.075504,263.223995 446.667498,262.008007 447.0515,260.536 C447.691503,257.719986 448.0115,255.28801 448.0115,253.24 C448.0115,252.855998 448.171498,252.584001 448.4915,252.424 C448.811502,252.263999 449.131498,252.263999 449.4515,252.424 C449.771502,252.584001 449.9635,252.855998 450.0275,253.24 C450.0275,257.784023 449.00351,261.783983 446.9555,265.24 C445.739494,267.28801 444.283509,268.312 442.5875,268.312 C440.891492,268.312 439.243508,266.712016 437.6435,263.512 C436.043492,260.311984 435.019502,257.656011 434.5715,255.544 C433.867497,250.615975 433.419501,247.384008 433.2275,245.848 C432.331496,247.640009 431.595503,249.271993 431.0195,250.744 C430.891499,251.064002 430.667502,251.224 430.3475,251.224 Z M442.4435,193.144 L442.5395,194.104 C442.411499,194.488002 442.267501,195.079996 442.1075,195.88 C441.947499,196.680004 441.803501,197.207999 441.6755,197.464 C440.459494,200.728016 439.659502,205.143972 439.2755,210.712 C439.147499,212.312008 438.923502,214.711984 438.6035,217.912 C437.963497,224.504033 437.579501,229.911979 437.4515,234.136 L437.6435,233.656 C443.339529,223.159948 446.1875,212.824051 446.1875,202.648 C446.1875,200.66399 445.899503,198.552011 445.3235,196.312 C444.747497,194.071989 443.819506,192.952 442.5395,192.952 C442.4755,193.016 442.4435,193.08 442.4435,193.144 Z" id="de-natal" fill="#FFFFFF"></path>
                <path d="M223.12,203.9 C219.877317,203.9 217.002013,202.962676 214.494,201.088 C211.985987,199.213324 210.060673,196.844681 208.718,193.982 C207.375327,191.119319 206.362003,188.244014 205.678,185.356 C204.993997,182.467986 204.652,179.732013 204.652,177.148 C204.652,174.563987 204.905331,172.258677 205.412,170.232 C206.577339,165.722644 209.363978,161.340021 213.772,157.084 C218.180022,152.827979 222.613311,150.7 227.072,150.7 C229.098677,150.7 231.049324,151.72599 232.924,153.778 C234.798676,155.83001 235.736,157.831324 235.736,159.782 C235.736,161.732676 235.03934,163.797322 233.646,165.976 C232.25266,168.154678 230.669342,169.244 228.896,169.244 C227.933329,169.244 226.932672,168.927337 225.894,168.294 C224.855328,167.660664 224.336,166.913338 224.336,166.052 C224.336,164.379992 224.817329,162.961339 225.78,161.796 C226.084002,161.441332 226.995992,160.909337 228.516,160.2 C228.820002,160.098666 229.073332,160.149332 229.276,160.352 C229.478668,160.554668 229.567333,160.782665 229.542,161.036 C229.516667,161.289335 229.352002,161.466666 229.048,161.568 L228.972,161.568 C228.211996,161.922668 227.578669,162.530662 227.072,163.392 C226.565331,164.253338 226.312,165.038663 226.312,165.748 C226.312,166.457337 226.590664,166.976665 227.148,167.306 C227.705336,167.635335 228.287997,167.8 228.896,167.8 C230.162673,167.8 231.378661,166.900676 232.544,165.102 C233.709339,163.303324 234.304667,161.656674 234.33,160.162 C234.355333,158.667326 233.70934,157.096675 232.392,155.45 C231.07466,153.803325 229.250678,152.98 226.92,152.98 C223.069314,152.98 219.522683,154.981313 216.28,158.984 C211.466643,165.013363 209.06,171.194635 209.06,177.528 C209.06,182.898694 210.313987,187.88931 212.822,192.5 C215.330013,197.11069 218.711979,199.416 222.968,199.416 L223.12,199.416 C226.41335,199.416 228.845325,198.630675 230.416,197.06 C233.456015,194.222652 234.976,191.689344 234.976,189.46 C234.976,188.041326 234.64667,186.736673 233.988,185.546 C233.32933,184.355327 232.316007,183.76 230.948,183.76 C229.579993,183.76 228.60467,184.367994 228.022,185.584 C227.43933,186.800006 227.148,187.77533 227.148,188.51 C227.148,189.24467 227.173333,189.789332 227.224,190.144 C227.274667,190.498668 227.186001,190.764666 226.958,190.942 C226.729999,191.119334 226.489335,191.157334 226.236,191.056 C225.830665,190.954666 225.628,190.20734 225.628,188.814 C225.628,187.42066 225.95733,186.090673 226.616,184.824 C227.578671,183.050658 229.073323,182.164 231.1,182.164 C233.126677,182.164 234.849326,182.911326 236.268,184.406 C237.686674,185.900674 238.383333,187.610657 238.358,189.536 C238.332667,191.461343 237.864005,193.41199 236.952,195.388 C236.039995,197.36401 234.900007,199.035993 233.532,200.404 C230.947987,202.734678 227.477355,203.9 223.12,203.9 Z M252.38,175.096 C257.092024,175.096 259.448,176.74265 259.448,180.036 C259.448,181.201339 259.068004,182.214662 258.308,183.076 L258.384,183.076 C258.890669,184.39334 259.144,185.786659 259.144,187.256 C259.144,188.725341 258.865336,190.245325 258.308,191.816 C258.96667,195.261351 260.030659,198.681316 261.5,202.076 C261.601334,202.278668 261.652,202.519332 261.652,202.798 C261.652,203.076668 261.525335,203.380665 261.272,203.71 C261.018665,204.039335 260.790668,204.204 260.588,204.204 C260.182665,204.204 259.701336,203.684672 259.144,202.646 C258.586664,201.607328 258.105335,200.163343 257.7,198.314 C257.294665,196.464657 256.990668,195.261336 256.788,194.704 C254.305321,198.301351 251.873345,200.1 249.492,200.1 L249.264,200.1 C246.730654,200.1 244.729341,199.302008 243.26,197.706 C241.790659,196.109992 241.056,194.248011 241.056,192.12 C241.056,189.991989 241.195332,188.117341 241.474,186.496 C241.752668,184.874659 242.246663,183.152009 242.956,181.328 C243.665337,179.503991 244.779992,178.034672 246.3,176.92 C247.921341,175.703994 249.947988,175.096 252.38,175.096 Z M257.928,180.416 C257.928,177.78132 256.306683,176.464 253.064,176.464 C250.631988,176.464 248.643341,177.654655 247.098,180.036 C245.552659,182.417345 244.78,184.988653 244.78,187.75 C244.78,190.511347 245.197996,192.816657 246.034,194.666 C246.870004,196.515343 248.225324,197.44 250.1,197.44 C251.316006,197.44 252.430662,196.984005 253.444,196.072 C255.014675,194.653326 255.8,193.488005 255.8,192.576 C255.8,191.663995 255.648002,190.346675 255.344,188.624 C255.039998,186.901325 254.888,185.723337 254.888,185.09 C254.888,184.456664 255.014665,183.886669 255.268,183.38 C254.862665,182.670663 254.571334,182.202001 254.394,181.974 C254.216666,181.745999 254.292665,181.518001 254.622,181.29 C254.951335,181.061999 255.242665,181.099998 255.496,181.404 L255.42,181.404 C255.774668,181.910669 256.129332,182.189333 256.484,182.24 C256.686668,182.138666 256.863999,182.088 257.016,182.088 C257.624003,181.479997 257.928,180.922669 257.928,180.416 Z M271.304,183.608 L271.38,180.264 C271.38,177.62932 271.000004,175.932004 270.24,175.172 C269.834665,174.766665 269.277337,174.564 268.568,174.564 C267.199993,174.564 265.85734,175.336659 264.54,176.882 C263.22266,178.427341 262.564,179.909326 262.564,181.328 C262.564,181.936003 262.741332,182.733995 263.096,183.722 C263.450668,184.710005 263.944664,185.191333 264.578,185.166 C265.211337,185.140667 265.806664,184.862003 266.364,184.33 C266.921336,183.797997 267.2,183.190003 267.2,182.506 C267.2,181.821997 267.111334,181.378668 266.934,181.176 C266.756666,180.973332 266.427336,180.884667 265.946,180.91 C265.464664,180.935333 265.160667,180.834001 265.034,180.606 C264.907333,180.377999 264.894666,180.137335 264.996,179.884 C265.097334,179.630665 265.299998,179.504 265.604,179.504 L265.604,179.428 L266.782,179.428 C267.415337,179.428 267.934665,179.617998 268.34,179.998 C268.745335,180.378002 268.948,181.163327 268.948,182.354 C268.948,183.544673 268.492005,184.557996 267.58,185.394 C266.667995,186.230004 265.578673,186.698666 264.312,186.8 C263.551996,186.8 262.754004,186.078007 261.918,184.634 C261.081996,183.189993 260.664,182.062671 260.664,181.252 C260.714667,179.326657 261.588658,177.33801 263.286,175.286 C264.983342,173.23399 266.680658,172.208 268.378,172.208 C270.075342,172.208 271.481328,172.917326 272.596,174.336 C274.420009,176.616011 275.407999,179.681314 275.56,183.532 L275.56,186.572 C278.093346,180.593303 279.587998,177.27467 280.044,176.616 C282.070677,173.575985 284.173322,172.056 286.352,172.056 C287.416005,172.056 288.365996,172.727327 289.202,174.07 C290.038004,175.412673 290.456,176.615995 290.456,177.68 C290.456,180.010678 290.228002,181.758661 289.772,182.924 C288.302659,186.470684 287.568,190.118648 287.568,193.868 C287.568,198.326689 288.327992,202.075985 289.848,205.116 C290.456003,205.116 291.101997,204.926002 291.786,204.546 C292.470003,204.165998 292.925999,204.051999 293.154,204.204 C293.382001,204.356001 293.496,204.558665 293.496,204.812 C293.496,205.065335 293.369335,205.267999 293.116,205.42 C291.697326,206.281338 290.532005,206.724667 289.62,206.75 C288.707995,206.775333 287.872004,205.952008 287.112,204.28 C287.010666,204.026665 286.782668,203.53267 286.428,202.798 C286.073332,202.06333 285.807334,201.455336 285.63,200.974 C285.452666,200.492664 285.237335,199.92267 284.984,199.264 C284.477331,197.845326 284.224,196.680005 284.224,195.768 L284.224,193.716 C284.224,188.345306 284.831994,184.241348 286.048,181.404 C286.808004,179.630658 287.162667,178.389337 287.112,177.68 C287.112,175.754657 286.858669,174.792 286.352,174.792 C284.629325,174.792 283.058674,176.007988 281.64,178.44 C280.575995,180.213342 279.588005,182.062657 278.676,183.988 C277.003992,187.686685 275.332008,193.589293 273.66,201.696 C273.609333,202.000002 273.343336,202.177333 272.862,202.228 C272.380664,202.278667 271.924669,202.202668 271.494,202 C271.063331,201.797332 270.848,201.544002 270.848,201.24 C271.152002,197.94665 271.304,194.564684 271.304,191.094 L271.304,183.608 Z M309.798,179.238 C310.836672,180.580673 311.356,181.923327 311.356,183.266 C311.356,184.608673 310.862005,185.963993 309.874,187.332 C308.885995,188.700007 307.632008,189.409333 306.112,189.46 C305.402663,189.46 304.148676,189.067337 302.35,188.282 C300.551324,187.496663 299.297337,186.800003 298.588,186.192 C297.017325,190.14402 297.447988,193.791983 299.88,197.136 C300.842671,198.45334 301.906661,199.112 303.072,199.112 C304.237339,199.112 305.529326,198.618005 306.948,197.63 C308.366674,196.641995 309.265998,195.666671 309.646,194.704 C310.026002,193.741329 310.469331,193.285333 310.976,193.336 C311.280002,193.386667 311.432,193.563998 311.432,193.868 C311.432,194.172002 311.330668,194.577331 311.128,195.084 C310.46933,196.857342 309.468673,198.377327 308.126,199.644 C306.783327,200.910673 305.301341,201.544 303.68,201.544 C301.197321,201.493333 299.145341,200.632008 297.524,198.96 C295.953325,197.338659 294.83867,195.185347 294.18,192.5 C294.18,189.155983 295.003325,186.040014 296.65,183.152 C298.296675,180.263986 300.639985,178.364005 303.68,177.452 C304.389337,177.299999 305.326661,177.224 306.492,177.224 C307.657339,177.224 308.759328,177.895327 309.798,179.238 Z M308.354,185.964 C308.886003,185.051995 309.152,184.165338 309.152,183.304 C309.152,182.442662 308.810003,181.581338 308.126,180.72 C307.441997,179.858662 306.821336,179.428 306.264,179.428 C305.706664,179.428 305.073337,179.605332 304.364,179.96 C302.083989,180.61867 300.361339,182.214654 299.196,184.748 C299.246667,184.748 299.385999,184.861999 299.614,185.09 C299.842001,185.318001 300.842658,185.748664 302.616,186.382 C304.389342,187.015337 305.655996,187.332 306.416,187.332 C307.176004,187.332 307.821997,186.876005 308.354,185.964 Z M330.736,184.52 C331.597338,184.52 332.028,183.760008 332.028,182.24 L332.028,180.796 C332.028,178.009319 330.305351,176.616 326.86,176.616 C325.187992,176.616 323.680673,177.451992 322.338,179.124 C320.995327,180.796008 319.99467,182.683323 319.336,184.786 C318.67733,186.888677 318.348,188.801325 318.348,190.524 C318.348,193.614682 319.082659,196.059324 320.552,197.858 C322.021341,199.656676 324.149319,200.556 326.936,200.556 C327.949338,200.556 329.000661,200.024005 330.09,198.96 C331.179339,197.895995 331.724,196.984004 331.724,196.224 C331.724,194.501325 331.268005,193.64 330.356,193.64 C329.747997,193.64 329.444,193.96933 329.444,194.628 C329.444,195.28667 329.228669,195.717332 328.798,195.92 C328.367331,196.122668 327.949335,196.097335 327.544,195.844 C327.138665,195.590665 326.961333,195.09667 327.012,194.362 C327.062667,193.62733 327.404664,192.93067 328.038,192.272 C328.671337,191.61333 329.456662,191.284 330.394,191.284 C331.331338,191.284 332.103997,191.752662 332.712,192.69 C333.320003,193.627338 333.611333,194.741994 333.586,196.034 C333.560667,197.326006 332.788008,198.769992 331.268,200.366 C329.747992,201.962008 328.304007,202.76 326.936,202.76 C323.389316,202.76 320.640676,201.670678 318.69,199.492 C316.739324,197.313322 315.764,194.298686 315.764,190.448 C315.764,188.218656 316.194662,185.774013 317.056,183.114 C317.917338,180.453987 319.234658,178.085344 321.008,176.008 C322.781342,173.930656 324.871321,172.892 327.278,172.892 C329.684679,172.892 331.457994,173.119998 332.598,173.576 C333.738006,174.032002 334.662663,174.969326 335.372,176.388 C336.081337,177.806674 336.436,179.313992 336.436,180.91 C336.436,182.506008 335.891339,183.886661 334.802,185.052 C333.712661,186.217339 332.433341,186.8 330.964,186.8 L330.736,186.8 C329.519994,186.8 328.671336,186.496003 328.19,185.888 C327.708664,185.279997 327.468,184.710003 327.468,184.178 C327.468,183.645997 327.543999,183.126669 327.696,182.62 C327.848001,182.113331 328.139331,181.809334 328.57,181.708 C329.000669,181.606666 329.367998,181.707998 329.672,182.012 C329.976002,182.316002 330.052001,182.784664 329.9,183.418 C329.747999,184.051337 330.026663,184.418666 330.736,184.52 Z M350.42,175.096 C355.132024,175.096 357.488,176.74265 357.488,180.036 C357.488,181.201339 357.108004,182.214662 356.348,183.076 L356.424,183.076 C356.930669,184.39334 357.184,185.786659 357.184,187.256 C357.184,188.725341 356.905336,190.245325 356.348,191.816 C357.00667,195.261351 358.070659,198.681316 359.54,202.076 C359.641334,202.278668 359.692,202.519332 359.692,202.798 C359.692,203.076668 359.565335,203.380665 359.312,203.71 C359.058665,204.039335 358.830668,204.204 358.628,204.204 C358.222665,204.204 357.741336,203.684672 357.184,202.646 C356.626664,201.607328 356.145335,200.163343 355.74,198.314 C355.334665,196.464657 355.030668,195.261336 354.828,194.704 C352.345321,198.301351 349.913345,200.1 347.532,200.1 L347.304,200.1 C344.770654,200.1 342.769341,199.302008 341.3,197.706 C339.830659,196.109992 339.096,194.248011 339.096,192.12 C339.096,189.991989 339.235332,188.117341 339.514,186.496 C339.792668,184.874659 340.286663,183.152009 340.996,181.328 C341.705337,179.503991 342.819992,178.034672 344.34,176.92 C345.961341,175.703994 347.987988,175.096 350.42,175.096 Z M355.968,180.416 C355.968,177.78132 354.346683,176.464 351.104,176.464 C348.671988,176.464 346.683341,177.654655 345.138,180.036 C343.592659,182.417345 342.82,184.988653 342.82,187.75 C342.82,190.511347 343.237996,192.816657 344.074,194.666 C344.910004,196.515343 346.265324,197.44 348.14,197.44 C349.356006,197.44 350.470662,196.984005 351.484,196.072 C353.054675,194.653326 353.84,193.488005 353.84,192.576 C353.84,191.663995 353.688002,190.346675 353.384,188.624 C353.079998,186.901325 352.928,185.723337 352.928,185.09 C352.928,184.456664 353.054665,183.886669 353.308,183.38 C352.902665,182.670663 352.611334,182.202001 352.434,181.974 C352.256666,181.745999 352.332665,181.518001 352.662,181.29 C352.991335,181.061999 353.282665,181.099998 353.536,181.404 L353.46,181.404 C353.814668,181.910669 354.169332,182.189333 354.524,182.24 C354.726668,182.138666 354.903999,182.088 355.056,182.088 C355.664003,181.479997 355.968,180.922669 355.968,180.416 Z M365.62,192.88 L365.696,191.512 C365.696,191.258665 365.797332,191.081334 366,190.98 C366.202668,190.878666 366.392666,190.878666 366.57,190.98 C366.747334,191.081334 366.836,191.258665 366.836,191.512 C366.836,192.626672 367.089331,193.158667 367.596,193.108 C368.204003,193.006666 368.685332,192.449338 369.04,191.436 C369.141334,191.131998 369.192,190.853335 369.192,190.6 L368.964,189.536 C368.964,188.927997 368.812002,188.320003 368.508,187.712 C368.203998,187.103997 367.798669,186.8 367.292,186.8 C367.038665,186.8 366.709335,187.205329 366.304,188.016 C365.138661,189.586675 364.556,191.511989 364.556,193.792 C364.556,196.072011 365.189327,198.022659 366.456,199.644 C366.506667,199.694667 366.557333,199.821332 366.608,200.024 C366.709334,200.480002 366.886665,200.708 367.14,200.708 C367.950671,200.708 368.989327,199.872008 370.256,198.2 C372.333344,195.058651 373.372,191.664018 373.372,188.016 C373.372,186.445325 373.182002,185.305337 372.802,184.596 C372.421998,183.886663 371.548007,183.329335 370.18,182.924 C369.825332,182.822666 369.040006,182.658001 367.824,182.43 C366.607994,182.201999 365.759336,181.986668 365.278,181.784 C364.796664,181.581332 364.302669,181.125337 363.796,180.416 C363.289331,179.706663 363.036,178.566675 363.036,176.996 C363.036,175.425325 363.770659,173.576011 365.24,171.448 C367.165343,168.661319 369.191989,167.268 371.32,167.268 C372.333338,167.268 373.359328,167.774662 374.398,168.788 C375.436672,169.801338 375.956,171.055326 375.956,172.55 C375.956,174.044674 375.58867,175.41266 374.854,176.654 C374.11933,177.89534 373.194672,178.516 372.08,178.516 C371.573331,178.516 371.079336,178.199337 370.598,177.566 C370.116664,176.932664 369.863333,176.426002 369.838,176.046 C369.812667,175.665998 369.838,175.387334 369.914,175.21 C369.99,175.032666 370.141999,174.842668 370.37,174.64 C370.598001,174.437332 370.775333,174.260001 370.902,174.108 C371.028667,173.955999 371.205999,173.905333 371.434,173.956 C371.662001,174.006667 371.814,174.120666 371.89,174.298 C371.966,174.475334 371.928001,174.665332 371.776,174.868 L371.928,174.792 C371.522665,175.197335 371.32,175.539332 371.32,175.818 C371.32,176.096668 371.395999,176.387998 371.548,176.692 C371.700001,176.996002 371.877332,177.148 372.08,177.148 C372.890671,177.148 373.561997,176.679338 374.094,175.742 C374.626003,174.804662 374.892,173.829338 374.892,172.816 C374.892,171.802662 374.512004,170.96667 373.752,170.308 C372.991996,169.64933 372.384002,169.32 371.928,169.32 C370.103991,169.32 368.53334,170.30799 367.216,172.284 C365.89866,174.26001 365.24,176.033325 365.24,177.604 C365.24,178.820006 365.695995,179.630665 366.608,180.036 C367.317337,180.340002 368.127995,180.567999 369.04,180.72 L370.864,181.024 C372.637342,181.581336 373.878663,182.417328 374.588,183.532 C375.297337,184.646672 375.652,186.141324 375.652,188.016 C375.652,192.424022 374.588011,196.299983 372.46,199.644 C371.497329,201.164008 370.914668,202.025332 370.712,202.228 C369.445327,203.494673 368.394004,204.128 367.558,204.128 C366.721996,204.128 365.93667,203.862003 365.202,203.33 C364.46733,202.797997 363.922668,202.278669 363.568,201.772 C361.845325,199.390655 360.984,196.680015 360.984,193.64 C360.984,190.599985 361.794659,188.041344 363.416,185.964 C364.176004,184.849328 365.467991,184.292 367.292,184.292 L367.444,184.292 C368.406671,184.292 369.191997,184.874661 369.8,186.04 C370.408003,187.205339 370.712,188.370661 370.712,189.536 L370.408,190.6 C370.408,191.613338 369.926671,192.575995 368.964,193.488 C368.001329,194.400005 367.292002,194.856 366.836,194.856 C366.17733,194.856 365.772001,194.19734 365.62,192.88 Z" id="Canecas" fill="#FFFFFF"></path>
                <g id="Group" transform="translate(276.000000, 312.000000)" fill="#FFFFFF">
                    <path d="M6.26254258,13.4853515 L6.26254258,-6.1284311e-14 L19.2923686,9.77942324 L19.2923686,0.566159254 L21.4081745,0.566159254 L21.4081745,14 L8.37844058,4.169066 L8.37844058,13.4853515 L6.26254258,13.4853515 Z M24.6722821,2.47049642 L24.6722821,0.566159254 L39.8435975,0.566159254 L39.8435975,2.47049642 L33.3416183,2.47049642 L33.3416183,13.4853515 L31.1743533,13.4853515 L31.1743533,2.47049642 L24.6722821,2.47049642 Z M43.1077051,0.566159254 L56.0085612,0.566159254 L56.0085612,2.47049642 L45.3008377,2.47049642 L45.3008377,5.76470588 L54.3057167,5.76470588 L54.3057167,7.69484433 L45.2751542,7.69484433 L45.2751542,11.5809225 L56.0085612,11.5809225 L56.0085612,13.4853515 L43.1077051,13.4853515 L43.1077051,0.566159254 Z M62.3226549,11.5809225 L72.8238976,11.5809225 L72.8238976,13.4853515 L60.1552978,13.4853515 L60.1552978,0.566159254 L62.3226549,0.566159254 L62.3226549,11.5809225 Z M76.0880052,13.4853515 L78.2038111,13.4853515 L78.2038111,0.566159254 L76.0880052,0.566159254 L76.0880052,13.4853515 Z M-2.48689958e-13,13.4853515 L2.11571389,13.4853515 L2.11571389,0.566159254 L-2.48689958e-13,0.566159254 L-2.48689958e-13,13.4853515 Z M82.3505477,0.566159254 L95.2517721,0.566159254 L95.2517721,2.47049642 L84.5437724,2.47049642 L84.5437724,5.76470588 L93.5487434,5.76470588 L93.5487434,7.69484433 L84.5178128,7.69484433 L84.5178128,11.5809225 L95.2517721,11.5809225 L95.2517721,13.4853515 L82.3505477,13.4853515 L82.3505477,0.566159254 Z M107.884562,13.561929 L110,13.561929 L110,5.15933969 L107.884562,5.15933969 L107.884562,13.561929 Z M103.652766,13.5838739 L105.768204,13.5838739 L105.768204,2.56901878 L103.652766,2.56901878 L103.652766,13.5838739 Z M99.4209703,13.5836902 L101.536408,13.5836902 L101.536408,7.80309957 L99.4209703,7.80309957 L99.4209703,13.5836902 Z" id="Combined-Shape"></path>
                </g>
            </g>
        </g>
    </g>
</svg>